SplineFontDB: 3.2
FontName: Sahel-SemiBold
FullName: Sahel SemiBold
FamilyName: Sahel SemiBold
Weight: SemiBold
Copyright: Copyright (c) 2016 by Saber Rastikerdar. All Rights Reserved.\nBased on DejaVu font.\nNon-Arabic(Latin) glyphs and data are imported from Open Sans font under the Apache License, Version 2.0.
Version: 3.4.0
ItalicAngle: 0
UnderlinePosition: -500
UnderlineWidth: 100
Ascent: 1638
Descent: 410
InvalidEm: 0
LayerCount: 2
Layer: 0 0 "Back" 1
Layer: 1 0 "Fore" 0
PreferredKerning: 4
XUID: [1021 502 1027637223 14543601]
UniqueID: 4222391
UseUniqueID: 1
FSType: 0
OS2Version: 1
OS2_WeightWidthSlopeOnly: 0
OS2_UseTypoMetrics: 1
CreationTime: 1431850356
ModificationTime: 1582306718
PfmFamily: 33
TTFWeight: 600
TTFWidth: 5
LineGap: 0
VLineGap: 0
Panose: 2 11 6 3 3 8 4 2 2 4
OS2TypoAscent: 2200
OS2TypoAOffset: 0
OS2TypoDescent: -1000
OS2TypoDOffset: 0
OS2TypoLinegap: 0
OS2WinAscent: 2200
OS2WinAOffset: 0
OS2WinDescent: 1000
OS2WinDOffset: 0
HheadAscent: 2200
HheadAOffset: 0
HheadDescent: -1000
HheadDOffset: 0
OS2SubXSize: 1331
OS2SubYSize: 1433
OS2SubXOff: 0
OS2SubYOff: 286
OS2SupXSize: 1331
OS2SupYSize: 1433
OS2SupXOff: 0
OS2SupYOff: 983
OS2StrikeYSize: 102
OS2StrikeYPos: 530
OS2CapHeight: 1638
OS2XHeight: 1082
OS2Vendor: '    '
OS2CodePages: 00000041.20080000
OS2UnicodeRanges: 80002003.80000000.00000008.00000000
Lookup: 1 9 0 "Single Substitution 1" { "Single Substitution 1 subtable"  } []
Lookup: 1 9 0 "'fina' Terminal Forms in Arabic lookup 9" { "'fina' Terminal Forms in Arabic lookup 9 subtable"  } ['fina' ('DFLT' <'dflt' > 'arab' <'FAR ' 'KUR ' 'URD ' 'dflt' > ) ]
Lookup: 1 9 0 "'medi' Medial Forms in Arabic lookup 11" { "'medi' Medial Forms in Arabic lookup 11 subtable"  } ['medi' ('DFLT' <'dflt' > 'arab' <'FAR ' 'KUR ' 'URD ' 'dflt' > ) ]
Lookup: 1 9 0 "'init' Initial Forms in Arabic lookup 13" { "'init' Initial Forms in Arabic lookup 13 subtable"  } ['init' ('DFLT' <'dflt' > 'arab' <'FAR ' 'KUR ' 'URD ' 'dflt' > ) ]

StartChar: exclam
Encoding: 33 33 1
GlifName: exclam
Width: 561
GlyphClass: 2
Flags: HW
LayerCount: 2
Fore
SplineSet
364 579 m 2
 360 535 342 513 310 513 c 2
 256 513 l 2
 220 513 200 535 196 580 c 2
 130 1275 l 2
 129 1287 128 1299 128 1310 c 0
 128 1406 173 1453 266 1453 c 2
 296 1453 l 2
 382 1453 424 1405 424 1308 c 0
 424 1298 423 1286 422 1275 c 2
 364 579 l 2
280 1 m 132
 195 1 127 70 127 155 c 132
 127 240 195 309 280 309 c 132
 365 309 434 240 434 155 c 132
 434 70 365 1 280 1 c 132
EndSplineSet
EndChar

StartChar: period
Encoding: 46 46 2
GlifName: period
Width: 562
GlyphClass: 2
Flags: HW
LayerCount: 2
Fore
SplineSet
280 1 m 128
 195 1 127 70 127 155 c 128
 127 240 195 309 280 309 c 128
 365 309 434 240 434 155 c 128
 434 70 365 1 280 1 c 128
EndSplineSet
EndChar

StartChar: colon
Encoding: 58 58 3
GlifName: colon
Width: 562
GlyphClass: 2
Flags: HW
LayerCount: 2
Fore
SplineSet
280 591 m 128
 195 591 127 660 127 745 c 128
 127 830 195 899 280 899 c 128
 365 899 434 830 434 745 c 128
 434 660 365 591 280 591 c 128
280 1 m 128
 195 1 127 70 127 155 c 128
 127 240 195 309 280 309 c 128
 365 309 434 240 434 155 c 128
 434 70 365 1 280 1 c 128
EndSplineSet
EndChar

StartChar: uni060C
Encoding: 1548 1548 5
GlifName: afii57388
Width: 562
GlyphClass: 2
Flags: HW
LayerCount: 2
Fore
SplineSet
281 0 m 0
 183.530273438 0 132.086914062 81.2255859375 132.086914062 162.450195312 c 0
 132.086914062 388.977539062 267.317382812 551.427734375 386.447265625 598.357421875 c 4
 440.596679688 620.016601562 484.8203125 598.357421875 434.280273438 560.453125 c 4
 345.833984375 493.666992188 293.634765625 388.977539062 292.732421875 295.1171875 c 1
 402.836914062 287.897460938 428.107421875 203.965820312 428.107421875 150.716796875 c 0
 428.107421875 74.9072265625 374.859375 0 281 0 c 0
EndSplineSet
EndChar

StartChar: uni0615
Encoding: 1557 1557 6
GlifName: uni0615
Width: 0
GlyphClass: 4
Flags: HW
AnchorPoint: "Anchor-10" 702 1946 mark 0
AnchorPoint: "Anchor-9" 702 1946 mark 0
AnchorPoint: "Anchor-1" 554 2839 basemark 0
AnchorPoint: "Anchor-1" 702 1946 mark 0
LayerCount: 2
Fore
SplineSet
998 2475 m 4
 1109 2475 1170 2406 1170 2284 c 4
 1170 2080 967 2018 727 2018 c 6
 420 2018 l 5
 367 2118 l 5
 504 2118 l 5
 504 2789 l 5
 606 2789 l 5
 606 2169 l 5
 747 2373 878 2475 998 2475 c 4
1070 2274 m 4
 1070 2330 1045 2358 996 2358 c 4
 915 2358 808 2278 676 2118 c 5
 778 2118 l 6
 931 2118 1070 2150 1070 2274 c 4
EndSplineSet
EndChar

StartChar: uni061B
Encoding: 1563 1563 7
GlifName: uni061B_
Width: 562
GlyphClass: 2
Flags: HW
LayerCount: 2
Fore
SplineSet
280 1 m 128
 195 1 127 70 127 155 c 128
 127 240 195 309 280 309 c 128
 365 309 434 240 434 155 c 128
 434 70 365 1 280 1 c 128
282.31640625 513.321289062 m 0
 184.846679688 513.321289062 133.403320312 594.546875 133.403320312 675.771484375 c 0
 133.403320312 902.298828125 268.633789062 1064.74902344 387.763671875 1111.67871094 c 4
 441.913085938 1133.33789062 486.13671875 1111.67871094 435.596679688 1073.77441406 c 4
 347.150390625 1006.98828125 294.951171875 902.298828125 294.048828125 808.438476562 c 1
 404.153320312 801.21875 429.423828125 717.287109375 429.423828125 664.038085938 c 0
 429.423828125 588.228515625 376.17578125 513.321289062 282.31640625 513.321289062 c 0
EndSplineSet
EndChar

StartChar: uni061F
Encoding: 1567 1567 8
GlifName: uni061F_
Width: 914
GlyphClass: 2
Flags: HW
LayerCount: 2
Fore
SplineSet
536 1 m 128
 451 1 383 70 383 155 c 128
 383 240 451 309 536 309 c 128
 621 309 690 240 690 155 c 128
 690 70 621 1 536 1 c 128
493 1190 m 0
 378 1190 299 1139 299 1029 c 0
 299 983 343 925 433 851 c 2
 481 812 l 2
 576 733 624 651 624 565 c 2
 624 536 l 2
 624 521 610 514 583 514 c 2
 505 514 l 2
 472 514 455 521 455 535 c 2
 455 566 l 2
 455 589 399 644 287 730 c 2
 203 794 l 2
 102 872 50 963 50 1067 c 0
 50 1300 229 1452 453 1452 c 0
 677 1452 852 1303 852 1063 c 0
 852 1032 851 1004 849 982 c 1
 731 982 l 1
 714 1122 634 1190 493 1190 c 0
EndSplineSet
EndChar

StartChar: uni0621
Encoding: 1569 1569 9
GlifName: uni0621
Width: 835
GlyphClass: 2
Flags: HW
AnchorPoint: "Anchor-7" 445.492 -45.6104 basechar 0
AnchorPoint: "Anchor-10" 417.172 996.74 basechar 0
LayerCount: 2
Fore
SplineSet
739.393554688 332.51953125 m 2
 720.79296875 170.700195312 l 1
 470.623046875 129.780273438 300.43359375 72.1201171875 98.623046875 -2.2802734375 c 1
 94.9033203125 193.01953125 l 1
 234.403320312 236.73046875 l 1
 185.11328125 289.740234375 151.633789062 347.400390625 151.633789062 423.66015625 c 0
 151.633789062 603.150390625 268.813476562 734.280273438 449.233398438 734.280273438 c 0
 540.373046875 734.280273438 616.633789062 703.58984375 679.873046875 642.209960938 c 1
 638.953125 499.919921875 l 1
 583.153320312 527.8203125 510.61328125 541.76953125 461.323242188 541.76953125 c 0
 370.18359375 541.76953125 302.29296875 477.599609375 302.29296875 431.099609375 c 0
 302.29296875 393.900390625 422.263671875 312.759765625 458.533203125 312.759765625 c 0
 480.853515625 312.759765625 528.283203125 324.849609375 580.36328125 338.799804688 c 2
 689.173828125 368.559570312 l 2
 732.883789062 379.719726562 743.11328125 366.9296875 739.393554688 332.51953125 c 2
EndSplineSet
EndChar

StartChar: uni0627
Encoding: 1575 1575 15
GlifName: uni0627
Width: 454
GlyphClass: 2
Flags: HW
AnchorPoint: "Anchor-10" 190 1500 basechar 0
AnchorPoint: "Anchor-7" 218 -216 basechar 0
LayerCount: 2
Fore
SplineSet
75 1286 m 5
 263 1406 l 6
 313.235351562 1438.06542969 326 1438 328 1388 c 4
 340.477539062 1076.05566406 343 878 343 773 c 4
 343 344 328 119 299 60 c 4
 274 9 225 -4 149 -5 c 5
 149 500 143 858 75 1286 c 5
EndSplineSet
Substitution2: "'fina' Terminal Forms in Arabic lookup 9 subtable" uniFE8E
EndChar

StartChar: uni062D
Encoding: 1581 1581 21
GlifName: uni062D_
Width: 1296
GlyphClass: 2
Flags: HW
AnchorPoint: "Anchor-10" 648 1142 basechar 0
AnchorPoint: "Anchor-7" 683 -846 basechar 0
LayerCount: 2
Fore
SplineSet
725 -438 m 0
 899 -438 1028 -424 1154 -407 c 0
 1192 -402 1199 -424 1185 -450 c 2
 1108 -589 l 2
 1075 -649 1023 -683 952 -690 c 0
 896 -696 822 -699 730 -699 c 0
 341 -699 117 -536 117 -151 c 0
 117 180 313 414 699 550 c 1
 593 569 430 606 381 606 c 0
 316 606 250 566 183 487 c 1
 77 542 l 1
 149 748 247 865 388 865 c 0
 451 865 537 851 706 793 c 0
 843 746 1025 687 1213 687 c 0
 1225 687 1230 681 1226 671 c 2
 1130 416 l 1
 740 363 273 203 273 -133 c 0
 273 -336 424 -438 725 -438 c 0
EndSplineSet
Substitution2: "'fina' Terminal Forms in Arabic lookup 9 subtable" uniFEA2
Substitution2: "'medi' Medial Forms in Arabic lookup 11 subtable" uniFEA4
Substitution2: "'init' Initial Forms in Arabic lookup 13 subtable" uniFEA3
EndChar

StartChar: uni062F
Encoding: 1583 1583 23
GlifName: uni062F_
Width: 1020
GlyphClass: 2
Flags: HW
AnchorPoint: "Anchor-10" 435 1292 basechar 0
AnchorPoint: "Anchor-7" 416 -217 basechar 0
LayerCount: 2
Fore
SplineSet
234 427 m 1
 234 427 234 410 236 394 c 0
 246 315 323 297 440 297 c 0
 652 297 760 325 760 381 c 0
 760 458 561 638 337 790 c 1
 432 1025 l 2
 445 1059 466 1051 494 1029 c 0
 778 816 920 603 920 390 c 0
 920 130 755 0 425 -0 c 0
 201 0 87 100 87 300 c 0
 87 330 93 376 108 439 c 1
 234 427 l 1
EndSplineSet
PairPos2: "'kern' Horizontal Kerning lookup 0 subtable 4" uniFB90 dx=-120 dy=0 dh=-120 dv=0 dx=0 dy=0 dh=0 dv=0
PairPos2: "'kern' Horizontal Kerning lookup 0 subtable 4" uni06A9 dx=-120 dy=0 dh=-120 dv=0 dx=0 dy=0 dh=0 dv=0
PairPos2: "'kern' Horizontal Kerning lookup 0 subtable 4" uniFB94 dx=-120 dy=0 dh=-120 dv=0 dx=0 dy=0 dh=0 dv=0
PairPos2: "'kern' Horizontal Kerning lookup 0 subtable 4" uni06AF dx=-120 dy=0 dh=-120 dv=0 dx=0 dy=0 dh=0 dv=0
Substitution2: "'fina' Terminal Forms in Arabic lookup 9 subtable" uniFEAA
EndChar

StartChar: uni0631
Encoding: 1585 1585 25
GlifName: uni0631
Width: 762
GlyphClass: 2
Flags: HW
AnchorPoint: "Anchor-7" 362 -662 basechar 0
AnchorPoint: "Anchor-10" 475 918 basechar 0
LayerCount: 2
Fore
SplineSet
528 627 m 1
 528 627 705 465 705 135 c 0
 705 -284 351 -542 211 -542 c 0
 176 -542 134 -523 111 -508 c 2
 29 -456 l 2
 -55 -403 -51 -388 47 -352 c 0
 314 -254 520 -104 520 71 c 0
 520 129 450 252 349 384 c 1
 528 627 l 1
EndSplineSet
PairPos2: "'kern' Horizontal Kerning lookup 0 subtable 3" uni06C0 dx=-128 dy=0 dh=-128 dv=0 dx=0 dy=0 dh=0 dv=0
PairPos2: "'kern' Horizontal Kerning lookup 0 subtable 3" uni0621 dx=-128 dy=0 dh=-128 dv=0 dx=0 dy=0 dh=0 dv=0
PairPos2: "'kern' Horizontal Kerning lookup 0 subtable 2" uni0648 dx=-43 dy=0 dh=-43 dv=0 dx=0 dy=0 dh=0 dv=0
PairPos2: "'kern' Horizontal Kerning lookup 0 subtable 0" uniFB58 dx=20 dy=0 dh=20 dv=0 dx=0 dy=0 dh=0 dv=0
PairPos2: "'kern' Horizontal Kerning lookup 0 subtable 0" uni0632 dx=-43 dy=0 dh=-43 dv=0 dx=0 dy=0 dh=0 dv=0
PairPos2: "'kern' Horizontal Kerning lookup 0 subtable 0" uni0631 dx=-43 dy=0 dh=-43 dv=0 dx=0 dy=0 dh=0 dv=0
PairPos2: "'kern' Horizontal Kerning lookup 0 subtable 0" uni06CC dx=-43 dy=0 dh=-43 dv=0 dx=0 dy=0 dh=0 dv=0
PairPos2: "'kern' Horizontal Kerning lookup 0 subtable 0" uniFEEB dx=-128 dy=0 dh=-128 dv=0 dx=0 dy=0 dh=0 dv=0
PairPos2: "'kern' Horizontal Kerning lookup 0 subtable 0" uniFB7C dx=-115 dy=0 dh=-115 dv=0 dx=0 dy=0 dh=0 dv=0
PairPos2: "'kern' Horizontal Kerning lookup 0 subtable 0" uniFEDF dx=-128 dy=0 dh=-128 dv=0 dx=0 dy=0 dh=0 dv=0
PairPos2: "'kern' Horizontal Kerning lookup 0 subtable 0" uniFB90 dx=-213 dy=0 dh=-213 dv=0 dx=0 dy=0 dh=0 dv=0
PairPos2: "'kern' Horizontal Kerning lookup 0 subtable 0" uni06A9 dx=-213 dy=0 dh=-213 dv=0 dx=0 dy=0 dh=0 dv=0
PairPos2: "'kern' Horizontal Kerning lookup 0 subtable 0" uni0649 dx=-43 dy=0 dh=-43 dv=0 dx=0 dy=0 dh=0 dv=0
PairPos2: "'kern' Horizontal Kerning lookup 0 subtable 0" uni0647 dx=-128 dy=0 dh=-128 dv=0 dx=0 dy=0 dh=0 dv=0
PairPos2: "'kern' Horizontal Kerning lookup 0 subtable 0" uniFEE7 dx=-128 dy=0 dh=-128 dv=0 dx=0 dy=0 dh=0 dv=0
PairPos2: "'kern' Horizontal Kerning lookup 0 subtable 0" uniFEE3 dx=-128 dy=0 dh=-128 dv=0 dx=0 dy=0 dh=0 dv=0
PairPos2: "'kern' Horizontal Kerning lookup 0 subtable 0" uni0645 dx=-128 dy=0 dh=-128 dv=0 dx=0 dy=0 dh=0 dv=0
PairPos2: "'kern' Horizontal Kerning lookup 0 subtable 0" uni0644 dx=-43 dy=0 dh=-43 dv=0 dx=0 dy=0 dh=0 dv=0
PairPos2: "'kern' Horizontal Kerning lookup 0 subtable 0" uniFEDB dx=-213 dy=0 dh=-213 dv=0 dx=0 dy=0 dh=0 dv=0
PairPos2: "'kern' Horizontal Kerning lookup 0 subtable 0" uniFED7 dx=-128 dy=0 dh=-128 dv=0 dx=0 dy=0 dh=0 dv=0
PairPos2: "'kern' Horizontal Kerning lookup 0 subtable 0" uni0642 dx=-43 dy=0 dh=-43 dv=0 dx=0 dy=0 dh=0 dv=0
PairPos2: "'kern' Horizontal Kerning lookup 0 subtable 0" uniFED3 dx=-128 dy=0 dh=-128 dv=0 dx=0 dy=0 dh=0 dv=0
PairPos2: "'kern' Horizontal Kerning lookup 0 subtable 0" uni0641 dx=-128 dy=0 dh=-128 dv=0 dx=0 dy=0 dh=0 dv=0
PairPos2: "'kern' Horizontal Kerning lookup 0 subtable 0" uniFECF dx=-128 dy=0 dh=-128 dv=0 dx=0 dy=0 dh=0 dv=0
PairPos2: "'kern' Horizontal Kerning lookup 0 subtable 0" uniFECB dx=-128 dy=0 dh=-128 dv=0 dx=0 dy=0 dh=0 dv=0
PairPos2: "'kern' Horizontal Kerning lookup 0 subtable 0" uniFEC7 dx=-128 dy=0 dh=-128 dv=0 dx=0 dy=0 dh=0 dv=0
PairPos2: "'kern' Horizontal Kerning lookup 0 subtable 0" uni0638 dx=-128 dy=0 dh=-128 dv=0 dx=0 dy=0 dh=0 dv=0
PairPos2: "'kern' Horizontal Kerning lookup 0 subtable 0" uniFEC3 dx=-128 dy=0 dh=-128 dv=0 dx=0 dy=0 dh=0 dv=0
PairPos2: "'kern' Horizontal Kerning lookup 0 subtable 0" uni0637 dx=-128 dy=0 dh=-128 dv=0 dx=0 dy=0 dh=0 dv=0
PairPos2: "'kern' Horizontal Kerning lookup 0 subtable 0" uniFEBF dx=-128 dy=0 dh=-128 dv=0 dx=0 dy=0 dh=0 dv=0
PairPos2: "'kern' Horizontal Kerning lookup 0 subtable 0" uni0636 dx=-128 dy=0 dh=-128 dv=0 dx=0 dy=0 dh=0 dv=0
PairPos2: "'kern' Horizontal Kerning lookup 0 subtable 0" uniFEBB dx=-128 dy=0 dh=-128 dv=0 dx=0 dy=0 dh=0 dv=0
PairPos2: "'kern' Horizontal Kerning lookup 0 subtable 0" uni0635 dx=-128 dy=0 dh=-128 dv=0 dx=0 dy=0 dh=0 dv=0
PairPos2: "'kern' Horizontal Kerning lookup 0 subtable 0" uniFEB7 dx=-128 dy=0 dh=-128 dv=0 dx=0 dy=0 dh=0 dv=0
PairPos2: "'kern' Horizontal Kerning lookup 0 subtable 0" uni0634 dx=-128 dy=0 dh=-128 dv=0 dx=0 dy=0 dh=0 dv=0
PairPos2: "'kern' Horizontal Kerning lookup 0 subtable 0" uniFEB3 dx=-128 dy=0 dh=-128 dv=0 dx=0 dy=0 dh=0 dv=0
PairPos2: "'kern' Horizontal Kerning lookup 0 subtable 0" uni0633 dx=-128 dy=0 dh=-128 dv=0 dx=0 dy=0 dh=0 dv=0
PairPos2: "'kern' Horizontal Kerning lookup 0 subtable 0" uni0630 dx=-128 dy=0 dh=-128 dv=0 dx=0 dy=0 dh=0 dv=0
PairPos2: "'kern' Horizontal Kerning lookup 0 subtable 0" uni062F dx=-128 dy=0 dh=-128 dv=0 dx=0 dy=0 dh=0 dv=0
PairPos2: "'kern' Horizontal Kerning lookup 0 subtable 0" uniFEA7 dx=-128 dy=0 dh=-128 dv=0 dx=0 dy=0 dh=0 dv=0
PairPos2: "'kern' Horizontal Kerning lookup 0 subtable 0" uniFEA3 dx=-128 dy=0 dh=-128 dv=0 dx=0 dy=0 dh=0 dv=0
PairPos2: "'kern' Horizontal Kerning lookup 0 subtable 0" uniFE9F dx=-128 dy=0 dh=-128 dv=0 dx=0 dy=0 dh=0 dv=0
PairPos2: "'kern' Horizontal Kerning lookup 0 subtable 0" uniFE9B dx=-128 dy=0 dh=-128 dv=0 dx=0 dy=0 dh=0 dv=0
PairPos2: "'kern' Horizontal Kerning lookup 0 subtable 0" uni062B dx=-128 dy=0 dh=-128 dv=0 dx=0 dy=0 dh=0 dv=0
PairPos2: "'kern' Horizontal Kerning lookup 0 subtable 0" uniFE97 dx=-128 dy=0 dh=-128 dv=0 dx=0 dy=0 dh=0 dv=0
PairPos2: "'kern' Horizontal Kerning lookup 0 subtable 0" uni062A dx=-128 dy=0 dh=-128 dv=0 dx=0 dy=0 dh=0 dv=0
PairPos2: "'kern' Horizontal Kerning lookup 0 subtable 0" uni0629 dx=-128 dy=0 dh=-128 dv=0 dx=0 dy=0 dh=0 dv=0
PairPos2: "'kern' Horizontal Kerning lookup 0 subtable 0" uniFE91 dx=-53 dy=0 dh=-53 dv=0 dx=0 dy=0 dh=0 dv=0
PairPos2: "'kern' Horizontal Kerning lookup 0 subtable 0" uni0628 dx=-128 dy=0 dh=-128 dv=0 dx=0 dy=0 dh=0 dv=0
PairPos2: "'kern' Horizontal Kerning lookup 0 subtable 0" uni0627 dx=-150 dy=0 dh=-150 dv=0 dx=0 dy=0 dh=0 dv=0
PairPos2: "'kern' Horizontal Kerning lookup 0 subtable 0" uni0622 dx=-150 dy=0 dh=-150 dv=0 dx=0 dy=0 dh=0 dv=0
PairPos2: "'kern' Horizontal Kerning lookup 0 subtable 0" uniFB94 dx=-235 dy=0 dh=-235 dv=0 dx=0 dy=0 dh=0 dv=0
PairPos2: "'kern' Horizontal Kerning lookup 0 subtable 0" uni06AF dx=-235 dy=0 dh=-235 dv=0 dx=0 dy=0 dh=0 dv=0
PairPos2: "'kern' Horizontal Kerning lookup 0 subtable 0" uniFB56 dx=-128 dy=0 dh=-128 dv=0 dx=0 dy=0 dh=0 dv=0
PairPos2: "'kern' Horizontal Kerning lookup 0 subtable 0" uni067E dx=-128 dy=0 dh=-128 dv=0 dx=0 dy=0 dh=0 dv=0
Substitution2: "'fina' Terminal Forms in Arabic lookup 9 subtable" uniFEAE
EndChar

StartChar: uni0633
Encoding: 1587 1587 27
GlifName: uni0633
Width: 2349
GlyphClass: 2
Flags: HW
AnchorPoint: "Anchor-7" 672 -732 basechar 0
AnchorPoint: "Anchor-10" 1679 991 basechar 0
LayerCount: 2
Fore
SplineSet
1942 294 m 0
 2017 294 2077 326 2077 399 c 0
 2077 473 2053 497 1993 615 c 1
 2129 790 l 2
 2158 828 2156 832 2183 790 c 0
 2243 690 2273 578 2273 454 c 0
 2273 249 2151.00241544 0 1944 0 c 0
 1825 0 1747 51 1694 153 c 1
 1629 51 1547 0 1456 0 c 0
 1404 0 1351 16 1301 47 c 5
 1288 -326 1064 -534 678 -535 c 0
 326 -534 99 -353 99 -23 c 0
 99 123 133 271 199 418 c 1
 317 379 l 1
 282 265 265 167 265 85 c 0
 265 -160 427 -255 677 -255 c 0
 888 -255 1128 -165 1128 20 c 0
 1128 91 1060 232 998 340 c 1
 1137 549 l 2
 1150 569 1163 565 1177 538 c 0
 1214 467 1257 393 1303 353 c 0
 1347 314 1408 294 1461 294 c 0
 1561 294 1615 342 1621 435 c 2
 1631 594 l 1
 1764 594 l 1
 1774 441 l 2
 1781 343 1837 294 1942 294 c 0
EndSplineSet
Substitution2: "'fina' Terminal Forms in Arabic lookup 9 subtable" uniFEB2
Substitution2: "'medi' Medial Forms in Arabic lookup 11 subtable" uniFEB4
Substitution2: "'init' Initial Forms in Arabic lookup 13 subtable" uniFEB3
EndChar

StartChar: uni0635
Encoding: 1589 1589 29
GlifName: uni0635
Width: 2603
GlyphClass: 2
Flags: HW
AnchorPoint: "Anchor-7" 672 -732 basechar 0
AnchorPoint: "Anchor-10" 2103 1165 basechar 0
LayerCount: 2
Fore
SplineSet
1445 297 m 5
 1597 510 1916 842 2173 842 c 0
 2378 842 2515 722 2515 499 c 0
 2515 178 2200 2 1816 2 c 2
 1582 2 l 2
 1464 2 1371 16 1302 44 c 1
 1289 -328 1063 -534 677 -535 c 0
 327 -534 100 -352 100 -23 c 0
 100 123 134 271 200 418 c 1
 318 379 l 1
 283 265 266 167 266 85 c 0
 266 -160 430 -255 682 -255 c 0
 901 -255 1129 -162 1129 13 c 0
 1129 80 1063 229 998 340 c 1
 1138 550 l 6
 1151 569 1162 565 1176 540 c 6
 1244 425 l 6
 1287.84765625 348.599609375 1365 300 1445 297 c 5
2319 408 m 0
 2319 519 2231 570 2104 570 c 0
 1956 570 1790 479 1607 296 c 1
 1907 296 l 2
 2163 296 2319 297 2319 408 c 0
EndSplineSet
Substitution2: "'fina' Terminal Forms in Arabic lookup 9 subtable" uniFEBA
Substitution2: "'medi' Medial Forms in Arabic lookup 11 subtable" uniFEBC
Substitution2: "'init' Initial Forms in Arabic lookup 13 subtable" uniFEBB
EndChar

StartChar: uni0637
Encoding: 1591 1591 31
GlifName: uni0637
Width: 1540
GlyphClass: 2
Flags: HW
AnchorPoint: "Anchor-10" 448 1500 basechar 0
AnchorPoint: "Anchor-7" 697 -212 basechar 0
LayerCount: 2
Fore
SplineSet
1451 499 m 0
 1451 177 1136 0 753 0 c 2
 222 0 l 1
 61 223 l 2
 26 261 15 294 88 294 c 2
 409 294 l 1
 409 303 409 317 409 330 c 1
 407 570 391 1062 352 1288 c 1
 537 1406 l 2
 593.323391971 1441.92519055 595 1442 595 1367 c 2
 595 531 l 1
 786 738 957 842 1109 842 c 0
 1316 842 1451 721 1451 499 c 0
1255 408 m 0
 1255 519 1167 570 1040 570 c 0
 892 570 726 479 543 296 c 1
 843 296 l 2
 1099 296 1255 297 1255 408 c 0
EndSplineSet
Substitution2: "'fina' Terminal Forms in Arabic lookup 9 subtable" uniFEC2
Substitution2: "'medi' Medial Forms in Arabic lookup 11 subtable" uniFEC4
Substitution2: "'init' Initial Forms in Arabic lookup 13 subtable" uniFEC3
EndChar

StartChar: uni0639
Encoding: 1593 1593 33
GlifName: uni0639
Width: 1262
GlyphClass: 2
Flags: HW
AnchorPoint: "Anchor-7" 683 -846 basechar 0
AnchorPoint: "Anchor-10" 674 1290 basechar 0
LayerCount: 2
Fore
SplineSet
725 -438 m 0
 881 -438 1016 -422 1134 -407 c 0
 1174 -402 1181 -421 1165 -450 c 2
 1088 -589 l 2
 1055 -649 1003 -682 932 -690 c 0
 876 -696 809 -699 730 -699 c 0
 357 -699 103 -548 103 -180 c 0
 103 37 211 240 419 369 c 1
 347 445 288 543 288 629 c 0
 288 832 462 1035 690 1035 c 0
 816 1035 918 991 999 901 c 1
 984 845 969 796 951 743 c 1
 881 776 804 795 717 795 c 0
 625 795 461 720 461 633 c 0
 461 585 609 466 666 466 c 1
 774 486 934 511 1068 518 c 0
 1104 520 1114 507 1104 472 c 2
 1041 241 l 1
 669 236 258 121 258 -161 c 0
 258 -366 417 -438 725 -438 c 0
EndSplineSet
Substitution2: "'fina' Terminal Forms in Arabic lookup 9 subtable" uniFECA
Substitution2: "'medi' Medial Forms in Arabic lookup 11 subtable" uniFECC
Substitution2: "'init' Initial Forms in Arabic lookup 13 subtable" uniFECB
EndChar

StartChar: uni0640
Encoding: 1600 1600 35
GlifName: afii57440
Width: 245
GlyphClass: 2
Flags: HW
AnchorPoint: "Anchor-10" 131 931 basechar 0
AnchorPoint: "Anchor-7" 120 -225 basechar 0
LayerCount: 2
Fore
SplineSet
-60 124 m 2
 -60 197 l 2
 -60 262 -42 294 -5 294 c 2
 250 294 l 2
 267 294 275 262 275 197 c 2
 275 124 l 2
 275 41 267 0 250 0 c 2
 -5 0 l 2
 -42 0 -60 41 -60 124 c 2
EndSplineSet
EndChar

StartChar: uni0643
Encoding: 1603 1603 38
GlifName: uni0643
Width: 1878
GlyphClass: 2
Flags: HW
AnchorPoint: "Anchor-10" 970 1365 basechar 0
AnchorPoint: "Anchor-7" 880 -210 basechar 0
LayerCount: 2
Fore
SplineSet
891 698 m 4
 965 698 1076 715 1076 774 c 4
 1076 804 1031 828 940 848 c 4
 827 872 771 937 771 1045 c 4
 771 1173 878 1247 1089 1276 c 4
 1123 1282 1142 1271 1132 1241 c 6
 1096 1137 l 5
 933 1121 850 1087 850 1037 c 4
 850 1007 895 984 986 968 c 4
 1104 947 1166 891 1166 774 c 4
 1166 628 1043 560 887 560 c 4
 810 560 745 571 671 595 c 5
 684 736 l 5
 756 711 825 698 891 698 c 4
1750 719 m 2
 1750 397 1700 204 1602 137 c 0
 1468 46 1216 0 843 0 c 0
 427 0 96 88 96 451 c 0
 96 582 126 705 186 822 c 1
 284 780 l 1
 262 701 251 632 251 574 c 0
 250 337 495 292 844 292 c 0
 1193 292 1412 321 1500 378 c 0
 1551 411 1551 483 1551 576 c 0
 1551 716 1530 1169 1512 1288 c 1
 1700 1406 l 2
 1741.38686368 1431.97686125 1750 1446 1750 1368 c 2
 1750 719 l 2
EndSplineSet
Substitution2: "'fina' Terminal Forms in Arabic lookup 9 subtable" uniFEDA
Substitution2: "'medi' Medial Forms in Arabic lookup 11 subtable" uniFEDC
Substitution2: "'init' Initial Forms in Arabic lookup 13 subtable" uniFEDB
EndChar

StartChar: uni0644
Encoding: 1604 1604 39
GlifName: uni0644
Width: 1345
GlyphClass: 2
Flags: HW
AnchorPoint: "Anchor-10" 566 990 basechar 0
AnchorPoint: "Anchor-7" 645 -695 basechar 0
LayerCount: 2
Fore
SplineSet
1215 196 m 2
 1224 -260 1060 -509 649 -509 c 0
 312 -509 90 -317 90 4 c 0
 90 150 124 297 190 445 c 1
 308 406 l 1
 273 292 256 193 256 111 c 0
 256 -128 415 -228 654 -228 c 0
 884 -228 1037 -151 1037 64 c 0
 1037 238 1001 589 943 1286 c 1
 1119 1401 l 2
 1183.75618199 1443.312278 1187.80370859 1458.99577323 1190 1357 c 2
 1215 196 l 2
EndSplineSet
Substitution2: "'fina' Terminal Forms in Arabic lookup 9 subtable" uniFEDE
Substitution2: "'medi' Medial Forms in Arabic lookup 11 subtable" uniFEE0
Substitution2: "'init' Initial Forms in Arabic lookup 13 subtable" uniFEDF
EndChar

StartChar: uni0645
Encoding: 1605 1605 40
GlifName: uni0645
Width: 1110
GlyphClass: 2
Flags: HW
AnchorPoint: "Anchor-10" 638 1101 basechar 0
AnchorPoint: "Anchor-7" 228 -866 basechar 0
LayerCount: 2
Fore
SplineSet
350 84 m 0
 319 84 291 79 266 70 c 1
 281 -437 l 2
 285 -548 245 -643 176 -709 c 0
 142 -742 113 -748 110 -682 c 0
 102 -512 93 -315 92 -146 c 1
 93 86 135 280 294 338 c 1
 353 566 432 801 651 802 c 0
 804 802 1041 537 1041 356 c 0
 1041 231 931 67 865 36 c 0
 855 31 840 31 821 34 c 0
 630 67 473 84 350 84 c 0
438 347 m 1
 513.942695279 342.210821018 573.034278896 337.421642037 622 331.351463218 c 0
 671.244492103 325.246725736 792.081461386 303.712461566 807 301 c 0
 832 297 864 292 860 312 c 0
 833 428 734 561 629 561 c 0
 539 561 463 428 438 347 c 1
EndSplineSet
Substitution2: "'init' Initial Forms in Arabic lookup 13 subtable" uniFEE3
Substitution2: "'medi' Medial Forms in Arabic lookup 11 subtable" uniFEE4
Substitution2: "'fina' Terminal Forms in Arabic lookup 9 subtable" uniFEE2
EndChar

StartChar: uni0647
Encoding: 1607 1607 42
GlifName: uni0647
Width: 877
GlyphClass: 2
Flags: HW
AnchorPoint: "Anchor-10" 379 1179 basechar 0
AnchorPoint: "Anchor-7" 427 -217 basechar 0
LayerCount: 2
Fore
SplineSet
443 6 m 0
 216 6 92 129 92 356 c 0
 92 501 164 663 310 846 c 0
 329 870 352 882 385 871 c 0
 562 810 795 597 795 381 c 0
 795 165 650 6 443 6 c 0
367 590 m 1
 292 490 254 415 254 365 c 0
 254 299 327 281 437 281 c 0
 568 281 632 316 632 387 c 0
 632 487 465 552 367 590 c 1
EndSplineSet
Substitution2: "'fina' Terminal Forms in Arabic lookup 9 subtable" uniFEEA
Substitution2: "'medi' Medial Forms in Arabic lookup 11 subtable" uniFEEC
Substitution2: "'init' Initial Forms in Arabic lookup 13 subtable" uniFEEB
EndChar

StartChar: uni0648
Encoding: 1608 1608 43
GlifName: uni0648
Width: 806
GlyphClass: 2
Flags: HW
AnchorPoint: "Anchor-7" 345 -658 basechar 0
AnchorPoint: "Anchor-10" 397 1027 basechar 0
LayerCount: 2
Fore
SplineSet
531 3 m 1
 476 -6 449 -8 399 -7 c 0
 197 -3 86 81 86 266 c 0
 86 478 211 734 402 734 c 0
 634 734 724 457 724 203 c 0
 724 -360 336 -542 233 -542 c 0
 210 -542 178 -535 143 -513 c 2
 48 -453 l 2
 -34 -400 -27 -388 69 -352 c 0
 304 -262 481 -145 531 3 c 1
248 361 m 0
 248 292 347 279 429 279 c 0
 466 279 514 282 555 287 c 1
 522 421 460 488 370 488 c 0
 301 488 249 440 248 361 c 0
EndSplineSet
Substitution2: "'fina' Terminal Forms in Arabic lookup 9 subtable" uniFEEE
EndChar

StartChar: uni0649
Encoding: 1609 1609 44
GlifName: uni0649
Width: 1474
GlyphClass: 2
Flags: HW
AnchorPoint: "Anchor-10" 626 896 basechar 0
AnchorPoint: "Anchor-7" 654 -683 basechar 0
LayerCount: 2
Fore
SplineSet
1251 515 m 0
 1112 515 997 438 910 304 c 1
 1167 237 l 2
 1279.18582744 207.753111133 1335 149 1335 57 c 0
 1335 -265 1037 -502 677 -502 c 0
 325 -502 98 -319 98 11 c 0
 98 148 135 298 208 459 c 1
 325 422 l 1
 284 290 264 188 264 118 c 0
 264 -126 426 -221 674 -221 c 0
 1006 -221 1170 -79 1170 -31 c 0
 1170 -24 1165.09735321 -18.6231558165 1155 -16 c 2
 874 57 l 2
 735.1171875 93.65625 730 128 730 192 c 0
 730 459 966 785 1235 785 c 0
 1290 785 1345 775 1403 756 c 5
 1362 506 l 1
 1329 509 1285 515 1251 515 c 0
EndSplineSet
Substitution2: "'fina' Terminal Forms in Arabic lookup 9 subtable" uniFEF0
Substitution2: "'medi' Medial Forms in Arabic lookup 11 subtable" uniFBE9
Substitution2: "'init' Initial Forms in Arabic lookup 13 subtable" uniFBE8
EndChar

StartChar: uni064B
Encoding: 1611 1611 46
GlifName: uni064B_
Width: 10
VWidth: 2316
GlyphClass: 4
Flags: HW
AnchorPoint: "Anchor-10" 583.551 1123.65 mark 0
AnchorPoint: "Anchor-9" 583.551 1123.65 mark 0
AnchorPoint: "Anchor-1" 553.285 1596.25 basemark 0
AnchorPoint: "Anchor-1" 583.551 1123.65 mark 0
LayerCount: 2
Fore
SplineSet
327 1076 m 1
 327 1180 l 1
 782 1366 l 1
 782 1263 l 1
 327 1076 l 1
327 1288 m 1
 327 1392 l 1
 782 1578 l 1
 782 1475 l 1
 327 1288 l 1
EndSplineSet
EndChar

StartChar: uni064C
Encoding: 1612 1612 47
GlifName: uni064C_
Width: 0
VWidth: 2316
GlyphClass: 4
Flags: HW
AnchorPoint: "Anchor-10" 680.906 1278.67 mark 0
AnchorPoint: "Anchor-9" 680.906 1278.67 mark 0
AnchorPoint: "Anchor-1" 637.739 1852.46 basemark 0
AnchorPoint: "Anchor-1" 680.906 1278.67 mark 0
LayerCount: 2
Fore
SplineSet
489 1629 m 0
 489 1726.34403608 557.578720581 1791 652 1791 c 0
 746.9412073 1791 814 1727.26136914 814 1628 c 0
 814 1589 804 1547 787 1507 c 1
 804 1504 819 1503 830 1503 c 1
 830 1427 l 1
 810 1428 786 1430 754 1436 c 1
 690.818294178 1315.56736709 597.606445312 1250.9921875 471.8671875 1250.9921875 c 0
 339.267578125 1250.9921875 270.984375 1343.99511719 268 1530 c 1
 347 1544 l 1
 350 1400 392 1329 473 1329 c 0
 547 1329 614 1373 673 1448 c 1
 567.206830152 1485.02760945 489 1533.83885907 489 1629 c 0
709 1523 m 1
 723.053510163 1555.79152371 736 1594.57522464 736 1627 c 0
 736 1675.05260976 699.641537636 1711 656 1711 c 0
 605.751193998 1711 569 1677.13488171 569 1625 c 0
 569 1567.8418395 644.003567546 1540.204938 709 1523 c 1
EndSplineSet
EndChar

StartChar: uni064D
Encoding: 1613 1613 48
GlifName: uni064D_
Width: 3
VWidth: 2316
GlyphClass: 4
Flags: HW
AnchorPoint: "Anchor-7" 545.278 32.7109 mark 0
AnchorPoint: "Anchor-6" 545.278 32.7109 mark 0
AnchorPoint: "Anchor-0" 595.022 -407.025 basemark 0
AnchorPoint: "Anchor-0" 545.278 32.7109 mark 0
LayerCount: 2
Fore
SplineSet
335 -446 m 1
 335 -342 l 1
 791 -156 l 1
 791 -260 l 1
 335 -446 l 1
335 -234 m 1
 335 -130 l 1
 791 56 l 1
 791 -48 l 1
 335 -234 l 1
EndSplineSet
EndChar

StartChar: uni064E
Encoding: 1614 1614 49
GlifName: uni064E_
Width: 0
VWidth: 2316
GlyphClass: 4
Flags: HW
AnchorPoint: "Anchor-10" 545.66 1397.63 mark 0
AnchorPoint: "Anchor-9" 545.66 1397.63 mark 0
AnchorPoint: "Anchor-1" 541.396 1651.77 basemark 0
AnchorPoint: "Anchor-1" 545.66 1397.63 mark 0
LayerCount: 2
Fore
SplineSet
296 1349 m 1
 296 1453 l 1
 752 1639 l 1
 752 1535 l 1
 296 1349 l 1
EndSplineSet
EndChar

StartChar: uni064F
Encoding: 1615 1615 50
GlifName: uni064F_
Width: 10
VWidth: 2316
GlyphClass: 4
Flags: HW
AnchorPoint: "Anchor-10" 591.295 1359.37 mark 0
AnchorPoint: "Anchor-9" 591.295 1359.37 mark 0
AnchorPoint: "Anchor-1" 542.134 1865.4 basemark 0
AnchorPoint: "Anchor-1" 591.295 1359.37 mark 0
LayerCount: 2
Fore
SplineSet
723 1427 m 1
 695 1427 669 1429 643 1433 c 1
 578 1342 420 1318 256 1309 c 1
 256 1387 l 1
 387 1399 519 1405 566 1455 c 1
 474.464114966 1471.64288819 380 1532.46344456 380 1626 c 0
 380 1723.76653486 448.787416907 1788 543 1788 c 0
 637.483259282 1788 706 1723.30209735 706 1625 c 0
 706 1586 697 1547 680 1506 c 1
 693 1504 708 1502 723 1502 c 1
 723 1427 l 1
600 1520 m 1
 614.053510163 1552.79152371 627 1591.57522464 627 1624 c 0
 627 1672.52693762 591.420717666 1707 547 1707 c 0
 496.353069173 1707 460 1674.44739485 460 1622 c 0
 460 1564.8418395 535.003567546 1537.204938 600 1520 c 1
EndSplineSet
EndChar

StartChar: uni0650
Encoding: 1616 1616 51
GlifName: uni0650
Width: 10
VWidth: 2316
GlyphClass: 4
Flags: HW
AnchorPoint: "Anchor-7" 571.144 -44.8242 mark 0
AnchorPoint: "Anchor-6" 571.144 -44.8242 mark 0
AnchorPoint: "Anchor-0" 619.091 -324.624 basemark 0
AnchorPoint: "Anchor-0" 571.144 -44.8242 mark 0
LayerCount: 2
Fore
SplineSet
343 -346 m 1
 343 -242 l 1
 798 -56 l 1
 798 -159 l 1
 343 -346 l 1
EndSplineSet
EndChar

StartChar: uni0651
Encoding: 1617 1617 52
GlifName: uni0651
Width: 0
GlyphClass: 4
Flags: HW
AnchorPoint: "Anchor-10" 590 1433 mark 0
AnchorPoint: "Anchor-9" 590 1433 mark 0
AnchorPoint: "Anchor-1" 560 1868 basemark 0
AnchorPoint: "Anchor-1" 590 1433 mark 0
LayerCount: 2
Fore
SplineSet
416 1543 m 0
 476.989856473 1543 508 1580.29777517 508 1651 c 2
 508 1768.33714721 l 1
 536.233920568 1777.04767918 565.13236105 1781.65600161 592.124043324 1784.48528289 c 1
 594.000650237 1701.91936533 l 2
 595.031325583 1638.01749389 625.254768326 1604 684 1604 c 0
 734.451955932 1604 761 1639.70222864 761 1705 c 0
 761 1729.26694449 759.970199299 1758.47898364 758.199543289 1783.43085626 c 1
 841.957097575 1838.36860692 l 1
 846.455609583 1797.4634343 849 1752.1954957 849 1712 c 0
 849 1551.61549648 798.925581903 1476 701 1476 c 0
 646.245938282 1476 604.773445933 1497.29762191 568.250925832 1533.82014198 c 1
 535.821826028 1455.78762057 487.22102185 1415 409 1415 c 0
 307.526732472 1415 257 1482.16585907 257 1623 c 0
 257 1661.43646043 259.787668655 1701.31613796 263.321058591 1737.85694735 c 1
 338.042478387 1707.61256315 l 1
 339.000797003 1631.91072852 l 2
 340.03048283 1574.24832225 365.998199431 1543 416 1543 c 0
EndSplineSet
EndChar

StartChar: uni0652
Encoding: 1618 1618 53
GlifName: uni0652
Width: 7
VWidth: 2316
GlyphClass: 4
Flags: HW
AnchorPoint: "Anchor-10" 615.219 1271.43 mark 0
AnchorPoint: "Anchor-9" 615.219 1271.43 mark 0
AnchorPoint: "Anchor-1" 589.537 1682.66 basemark 0
AnchorPoint: "Anchor-1" 615.219 1271.43 mark 0
LayerCount: 2
Fore
SplineSet
421.07421875 1461.82128906 m 128
 421.07421875 1558.0090031 498.217186311 1635.14941406 594.40234375 1635.14941406 c 128
 690.589197165 1635.14941406 767.731445312 1558.00592629 767.731445312 1461.82128906 c 128
 767.731445312 1365.63505466 690.585602301 1288.49316406 594.40234375 1288.49316406 c 128
 498.215665264 1288.49316406 421.07421875 1365.63709537 421.07421875 1461.82128906 c 128
502.666015625 1461.02246094 m 0
 501.783217866 1409.2985377 544.56744345 1367.02229206 596.758789062 1366.92871094 c 0
 648.762845901 1367.02318612 691.048987476 1409.12177258 690.8515625 1461.02246094 c 0
 691.04919912 1512.91897674 648.759953131 1554.96284711 596.758789062 1555.11425781 c 0
 544.563299839 1554.96425972 501.782224782 1512.74495934 502.666015625 1461.02246094 c 0
EndSplineSet
EndChar

StartChar: uni0653
Encoding: 1619 1619 54
GlifName: uni0653
Width: 0
GlyphClass: 4
Flags: HW
AnchorPoint: "Anchor-10" 485 1570 mark 0
AnchorPoint: "Anchor-9" 485 1570 mark 0
AnchorPoint: "Anchor-1" 455 2046 basemark 0
AnchorPoint: "Anchor-1" 485 1570 mark 0
LayerCount: 2
Fore
SplineSet
315 1861 m 0
 351 1861 405 1856 458 1850 c 0
 507 1844 554 1840 583 1840 c 0
 666 1840 735 1845 768 1853 c 0
 833 1869 850 1857 811 1799 c 0
 756 1721 729 1662 526 1662 c 0
 479 1662 424 1665 362 1670 c 1
 299 1665 237 1635 177 1582 c 1
 159 1594 135 1609 125 1623 c 1
 179 1763 219 1861 315 1861 c 0
EndSplineSet
EndChar

StartChar: uni0657
Encoding: 1623 1623 57
GlifName: uni0657
Width: 4
VWidth: 2316
GlyphClass: 4
Flags: HW
AnchorPoint: "Anchor-10" 513.285 1400.55 mark 0
AnchorPoint: "Anchor-9" 513.285 1400.55 mark 0
AnchorPoint: "Anchor-1" 537.285 2069.85 basemark 0
AnchorPoint: "Anchor-1" 513.285 1400.55 mark 0
LayerCount: 2
Fore
SplineSet
265 1805 m 1
 305 1804 348 1801 395 1796 c 1
 396 1797 l 2
 496 1939 625 2018 785 2033 c 1
 785 1955 l 1
 662 1935 562 1876 486 1778 c 1
 573.073233818 1752.51515108 658 1697.36135892 658 1599 c 0
 658 1507.71378279 593.059658194 1438 501 1438 c 0
 408.64267729 1438 332 1502.56128158 332 1603 c 0
 332 1632 339 1672 355 1722 c 1
 328 1724 299 1726 265 1726 c 1
 265 1805 l 1
501 1516 m 0
 549.036312445 1516 577 1548.90280457 577 1597 c 0
 577 1658.28540997 503.060368911 1693.27134074 437 1709 c 1
 419 1666 410 1632 410 1605 c 0
 410 1552.84187884 451.285616311 1516 501 1516 c 0
EndSplineSet
EndChar

StartChar: uni065A
Encoding: 1626 1626 58
GlifName: uni065A_
Width: 1135
VWidth: 2316
GlyphClass: 4
Flags: HW
AnchorPoint: "Anchor-10" 573.285 1350.55 mark 0
AnchorPoint: "Anchor-9" 573.285 1350.55 mark 0
AnchorPoint: "Anchor-1" 571.012 1862.38 basemark 0
AnchorPoint: "Anchor-1" 573.285 1350.55 mark 0
LayerCount: 2
Fore
SplineSet
502 1444 m 5
 309 1768 l 5
 433 1768 l 5
 573 1528 l 5
 714 1768 l 5
 838 1768 l 5
 644 1444 l 5
 502 1444 l 5
EndSplineSet
EndChar

StartChar: uni0660
Encoding: 1632 1632 59
GlifName: afii57392
Width: 834
GlyphClass: 2
Flags: HW
LayerCount: 2
Fore
SplineSet
419.849609375 782.474609375 m 5
 655.450195312 546.875 l 5
 414.150390625 306.525390625 l 5
 178.549804688 542.125 l 5
 419.849609375 782.474609375 l 5
EndSplineSet
EndChar

StartChar: uni0661
Encoding: 1633 1633 60
GlifName: afii57393
Width: 731
GlyphClass: 2
Flags: HW
LayerCount: 2
Fore
SplineSet
317 1375 m 0
 460 1031 532 675 532 225 c 0
 532 175 531 109 523 58 c 0
 519 32 514 30 369 -2 c 1
 369 477 288 847 125 1190 c 1
 275 1384 l 2
 291 1406 306 1402 317 1375 c 0
EndSplineSet
EndChar

StartChar: uni0662
Encoding: 1634 1634 61
GlifName: afii57394
Width: 1095
GlyphClass: 2
Flags: HW
LayerCount: 2
Fore
SplineSet
605 1047 m 4
 742 1047 819 1140 841 1324 c 6
 846 1362 l 5
 999 1362 l 5
 997 1314 l 21
 989 951 857 770 600 770 c 4
 554 770 517 773 488 780 c 5
 517 584 531 425 532 225 c 0
 532 175 531 109 523 58 c 0
 519 32 514 30 369 -2 c 1
 368 477 288 847 125 1190 c 5
 275 1384 l 6
 291 1405 306 1401 317 1375 c 4
 326 1353 348 1297 381 1206 c 20
 420 1100 495 1047 605 1047 c 4
EndSplineSet
EndChar

StartChar: uni0663
Encoding: 1635 1635 62
GlifName: afii57395
Width: 1296
GlyphClass: 2
Flags: HW
LayerCount: 2
Fore
SplineSet
493 765 m 1
 519 582 531 430 532 225 c 0
 532 175 531 109 523 58 c 0
 519 32 514 30 369 -2 c 1
 368 477 288 847 125 1190 c 1
 275 1384 l 2
 292 1406 306 1403 317 1375 c 0
 326 1352 347 1296 381 1206 c 16
 422 1099 478 1045 549 1045 c 0
 618 1045 658 1096 671 1197 c 2
 686 1320 l 1
 830 1320 l 1
 835 1188 l 2
 838 1092 874 1045 943 1045 c 0
 999 1045 1032 1102 1043 1217 c 2
 1055 1345 l 1
 1207 1345 l 1
 1207 1281 l 2
 1207 943 1116 773 934 773 c 0
 853 773 788 814 737 897 c 1
 705 808 634 764 523 764 c 0
 513 764 504 764 493 765 c 1
EndSplineSet
EndChar

StartChar: uni0664
Encoding: 1636 1636 63
GlifName: afii57396
Width: 991
GlyphClass: 2
Flags: HW
LayerCount: 2
Fore
SplineSet
452 291 m 0
 533 265 730 258 876 263 c 1
 871 59 l 2
 870 15 853 -8 823 -8 c 0
 482 -8 146 80 146 244 c 0
 146 366 249 481 456 607 c 5
 237 708 128 787 128 884 c 4
 128 1105 452 1239 715 1356 c 4
 760 1376 777 1367 770 1332 c 6
 711 1020 l 5
 580 1001 488 983 436 964 c 4
 374 941 377 897 439 859 c 4
 525 807 626 775 741 725 c 5
 744 669 748 613 751 556 c 5
 589 486 483 436 434 387 c 0
 392 345 387 312 452 291 c 0
EndSplineSet
EndChar

StartChar: uni0665
Encoding: 1637 1637 64
GlifName: afii57397
Width: 1115
GlyphClass: 2
Flags: HW
LayerCount: 2
Fore
SplineSet
534 947 m 5
 367 741 283 602 283 469 c 0
 283 327 403 273 550 273 c 0
 721 273 850 333 850 482 c 0
 850 618 745 752 534 947 c 5
327 1127 m 5
 470 1388 l 5
 845 1062 1032 777 1032 473 c 0
 1032 198 838 1 548 1 c 0
 283 1 87 171 87 433 c 0
 87 632 209 831 409 1065 c 5
 327 1127 l 5
EndSplineSet
EndChar

StartChar: uni0666
Encoding: 1638 1638 65
GlifName: afii57398
Width: 1171
GlyphClass: 2
Flags: HW
LayerCount: 2
Fore
SplineSet
866 1328 m 5
 870 703 939 348 1073 184 c 1
 910 -15 l 1
 710 181 683 618 676 1042 c 5
 572 1023 471 1011 389 1011 c 4
 250 1011 147 1031 113 1065 c 4
 94 1084 78 1177 64 1344 c 4
 60 1395 69 1390 104 1377 c 4
 231 1328 380 1303 549 1303 c 4
 648 1303 753 1311 866 1328 c 5
EndSplineSet
EndChar

StartChar: uni0667
Encoding: 1639 1639 66
GlifName: afii57399
Width: 1203
GlyphClass: 2
Flags: HW
LayerCount: 2
Fore
SplineSet
1139 1164 m 1
 961 867 815 505 700 -3 c 1
 536 -3 l 1
 444 448 287 806 66 1151 c 1
 204 1382 l 2
 216 1402 230 1401 243 1378 c 0
 393 1113 515 811 611 391 c 1
 731 869 841 1170 940 1373 c 0
 953 1399 966 1402 980 1382 c 2
 1139 1164 l 1
EndSplineSet
EndChar

StartChar: uni0668
Encoding: 1640 1640 67
GlifName: afii57400
Width: 1204
GlyphClass: 2
Flags: HW
LayerCount: 2
Fore
SplineSet
1139 196 m 1
 980 -23 l 2
 966 -43 953 -39 940 -13 c 0
 841 190 731 491 611 969 c 1
 515 549 393 247 243 -18 c 0
 230 -41 216 -43 204 -23 c 2
 66 209 l 1
 287 554 444 911 536 1362 c 1
 700 1362 l 1
 815 854 961 493 1139 196 c 1
EndSplineSet
EndChar

StartChar: uni0669
Encoding: 1641 1641 68
GlifName: afii57401
Width: 1039
GlyphClass: 2
Flags: HW
LayerCount: 2
Fore
SplineSet
442 861 m 4
 490 861 548 867 614 880 c 5
 600 1054 545 1138 434 1138 c 4
 350 1138 281 1048 281 966 c 4
 281 876 351 862 442 861 c 4
439 1371 m 4
 687 1371 780 1149 787 861 c 4
 796 492 857 303 969 194 c 5
 815 -20 l 5
 690 108 627 314 625 620 c 5
 559 610 499 606 445 606 c 4
 235 606 105 698 105 906 c 4
 105 1137 228 1371 439 1371 c 4
EndSplineSet
EndChar

StartChar: uni066A
Encoding: 1642 1642 69
GlifName: afii57381
Width: 1033
VWidth: 4036
GlyphClass: 2
Flags: HW
LayerCount: 2
Fore
SplineSet
750 1350 m 1
 882 1290 l 1
 900 1282 l 1
 302 -1 l 1
 284 7 l 1
 152 67 l 1
 133 75 l 1
 732 1358 l 1
 750 1350 l 1
617 213 m 0
 617 297 686 367 770 367 c 0
 854 367 923 297 923 213 c 0
 923 129 854 60 770 60 c 0
 685 60 617 126 617 213 c 0
110 1139 m 0
 110 1223 179 1293 263 1293 c 0
 347 1293 416 1223 416 1139 c 0
 416 1055 347 986 263 986 c 0
 178 986 110 1052 110 1139 c 0
EndSplineSet
EndChar

StartChar: uni066B
Encoding: 1643 1643 70
GlifName: uni066B_
Width: 772
VWidth: 2950
GlyphClass: 2
Flags: HW
LayerCount: 2
Fore
SplineSet
541.826171875 751.405273438 m 1
 668.826171875 697.405273438 l 1
 687.352539062 689.52734375 l 1
 679.353515625 671.052734375 l 1
 217.353515625 -395.947265625 l 1
 209.421875 -414.265625 l 1
 191.087890625 -406.368164062 l 1
 61.087890625 -350.368164062 l 1
 42.62890625 -342.416992188 l 1
 50.6708984375 -323.997070312 l 1
 515.670898438 741.002929688 l 1
 523.596679688 759.15625 l 1
 541.826171875 751.405273438 l 1
EndSplineSet
PairPos2: "'kern' Horizontal Kerning lookup 0 subtable 6" uni06F4 dx=-110 dy=0 dh=-110 dv=0 dx=0 dy=0 dh=0 dv=0
PairPos2: "'kern' Horizontal Kerning lookup 0 subtable 6" uni06F3 dx=-130 dy=0 dh=-130 dv=0 dx=0 dy=0 dh=0 dv=0
PairPos2: "'kern' Horizontal Kerning lookup 0 subtable 6" uni06F2 dx=-130 dy=0 dh=-130 dv=0 dx=0 dy=0 dh=0 dv=0
EndChar

StartChar: uni066C
Encoding: 1644 1644 71
GlifName: uni066C_
Width: 503
GlyphClass: 2
Flags: HW
LayerCount: 2
Fore
SplineSet
98 127 m 4
 98 210 147 270 234 270 c 4
 335 270 381 209 381 85 c 4
 381 -61 327 -196 158 -297 c 4
 89 -338 53 -285 86 -256 c 4
 198 -158 228 -78 228 -31 c 5
 139 15 98 38 98 127 c 4
EndSplineSet
PairPos2: "'kern' Horizontal Kerning lookup 0 subtable 6" uni06F4 dx=-112 dy=0 dh=-112 dv=0 dx=0 dy=0 dh=0 dv=0
PairPos2: "'kern' Horizontal Kerning lookup 0 subtable 6" uni06F3 dx=-128 dy=0 dh=-128 dv=0 dx=0 dy=0 dh=0 dv=0
PairPos2: "'kern' Horizontal Kerning lookup 0 subtable 6" uni06F2 dx=-112 dy=0 dh=-112 dv=0 dx=0 dy=0 dh=0 dv=0
EndChar

StartChar: uni066D
Encoding: 1645 1645 72
GlifName: afii63167
Width: 1734
GlyphClass: 2
Flags: HW
LayerCount: 2
Fore
SplineSet
189 1176 m 1
 707 1176 l 1
 869 1669 l 1
 1031 1176 l 1
 1549 1176 l 1
 1130 870 l 1
 1290 378 l 1
 869 683 l 1
 447 378 l 1
 608 870 l 1
 189 1176 l 1
EndSplineSet
EndChar

StartChar: uni066E
Encoding: 1646 1646 73
GlifName: uni066E_
Width: 1788
GlyphClass: 2
Flags: HW
AnchorPoint: "Anchor-10" 783 1279 basechar 0
AnchorPoint: "Anchor-7" 640 -205 basechar 0
LayerCount: 2
Fore
SplineSet
851 0 m 0
 426 0 96 86 96 451 c 0
 96 576 125 694 182 805 c 1
 293 770 l 1
 272 696 261 630 261 572 c 0
 261 334 514 291 872 291 c 0
 1229 291 1497 298 1497 418 c 0
 1497 476 1467 544 1413 659 c 1
 1549 835 l 2
 1579 874 1582 873 1604 835 c 0
 1662 735 1691 617 1692 482 c 0
 1691 98 1351 0 851 0 c 0
EndSplineSet
Substitution2: "'fina' Terminal Forms in Arabic lookup 9 subtable" uni066E.fina
EndChar

StartChar: uni066F
Encoding: 1647 1647 74
GlifName: uni066F_
Width: 1390
GlyphClass: 2
Flags: HW
AnchorPoint: "Anchor-10" 540 1174 basechar 0
AnchorPoint: "Anchor-7" 561 -689 basechar 0
LayerCount: 2
Fore
SplineSet
948 60 m 0
 768 60 678 148 678 324 c 0
 678 540 777 781 985 781 c 0
 1210 781 1294 491 1294 199 c 0
 1294 -219 1103 -434 687 -434 c 0
 327 -434 98 -255 98 79 c 0
 98 225 132 372 198 520 c 1
 316 480 l 1
 281 366 264 268 264 186 c 0
 264 -62 428 -153 684 -153 c 0
 952 -153 1125 -74 1137 79 c 1
 1060 67 997 60 948 60 c 0
976 333 m 0
 1045 333 1099 340 1137 353 c 1
 1108 477 1047 538 956 538 c 0
 896 538 837 484 837 408 c 0
 837 345 892 333 976 333 c 0
EndSplineSet
Substitution2: "'fina' Terminal Forms in Arabic lookup 9 subtable" uni066F.fina
EndChar

StartChar: uni0670
Encoding: 1648 1648 75
GlifName: uni0670
Width: 0
GlyphClass: 4
Flags: HW
AnchorPoint: "Anchor-10" 776 1776 mark 0
AnchorPoint: "Anchor-9" 776 1776 mark 0
AnchorPoint: "Anchor-1" 744 2317 basemark 0
AnchorPoint: "Anchor-1" 776 1776 mark 0
LayerCount: 2
Fore
SplineSet
739 1810 m 1
 684 2164 l 1
 805 2235 l 1
 805 1831 l 1
 739 1810 l 1
EndSplineSet
EndChar

StartChar: uni0674
Encoding: 1652 1652 76
GlifName: uni0674
Width: 802
GlyphClass: 2
Flags: HW
LayerCount: 2
Fore
SplineSet
199.824411903 1791.18189594 m 1
 221.029757354 1926.04789301 l 1
 291.027386143 1956.84684968 l 1
 313.69683409 1966.82140677 l 1
 290.457053588 1975.38343117 l 2
 237.551599563 1994.87491423 211 2036.24119479 211 2099 c 0
 211 2178.45958111 242.317888243 2346 413 2346 c 0
 465.706102492 2346 521.834960938 2319.36914062 572.052734375 2272.55273438 c 5
 537.3515625 2192.14941406 l 5
 495.3125 2204.43359375 449.858886755 2212 418 2212 c 0
 352.134644708 2212 304 2178.27013795 304 2141 c 0
 304 2100.2643763 345.803052313 2046 433 2046 c 0
 461.026381463 2046 499.779296875 2050.11621094 536.747070312 2060.38476562 c 4
 546.485351562 2063.16699219 561.720703125 2067.0625 573.747070312 2067.14550781 c 4
 587.581054688 2067.24121094 592 2064.45996094 592 2055 c 6
 592 1949.70019531 l 5
 510.221679688 1927.45605469 366.854840773 1870.39799015 199.824411903 1791.18189594 c 1
EndSplineSet
EndChar

StartChar: uni0686
Encoding: 1670 1670 78
GlifName: afii57507
Width: 1296
GlyphClass: 2
Flags: HW
AnchorPoint: "Anchor-7" 683 -846 basechar 0
AnchorPoint: "Anchor-10" 648 1142 basechar 0
LayerCount: 2
Fore
SplineSet
765.025390625 -329.900390625 m 1
 629.174804688 -193.099609375 l 1
 765.025390625 -56.2998046875 l 1
 901.825195312 -193.099609375 l 1
 765.025390625 -329.900390625 l 1
919.875 -105.700195312 m 1
 783.075195312 31.099609375 l 1
 919.875 167.900390625 l 1
 1056.67480469 31.099609375 l 1
 919.875 -105.700195312 l 1
611.125 -105.700195312 m 1
 474.325195312 31.099609375 l 1
 611.125 167.900390625 l 1
 747.924804688 31.099609375 l 1
 611.125 -105.700195312 l 1
EndSplineSet
Refer: 21 1581 N 1 0 0 1 0 0 2
Substitution2: "'fina' Terminal Forms in Arabic lookup 9 subtable" uniFB7B
Substitution2: "'medi' Medial Forms in Arabic lookup 11 subtable" uniFB7D
Substitution2: "'init' Initial Forms in Arabic lookup 13 subtable" uniFB7C
EndChar

StartChar: uni06A1
Encoding: 1697 1697 80
GlifName: uni06A_1
Width: 1728
GlyphClass: 2
Flags: HW
AnchorPoint: "Anchor-10" 744 1456 basechar 0
AnchorPoint: "Anchor-7" 618 -190 basechar 0
LayerCount: 2
Fore
SplineSet
1296 662 m 0
 1369 662 1424 669 1463 682 c 1
 1434 806 1383 867 1288 867 c 0
 1225 867 1157 812 1157 736 c 0
 1157 674 1212 662 1296 662 c 0
1286 420 m 0
 1103 420 1001 503 1001 666 c 0
 1001 879 1100 1110 1305 1110 c 0
 1542 1110 1631 812 1631 522 c 0
 1631 317.408510131 1576.16487461 191.493504519 1468.00009887 114.765383844 c 4
 1333.49773289 19.3543436366 1116.53279503 1.42108547152e-14 820 0 c 0
 421 0 96 96 96 451 c 0
 96 576 125 694 182 805 c 1
 293 770 l 1
 272 696 261 630 261 572 c 0
 261 334 511 291 851 291 c 0
 1211 291 1450 292 1471 438 c 1
 1403 426 1348 420 1286 420 c 0
EndSplineSet
Substitution2: "'init' Initial Forms in Arabic lookup 13 subtable" uni06A1.init
Substitution2: "'medi' Medial Forms in Arabic lookup 11 subtable" uni06A1.medi
Substitution2: "'fina' Terminal Forms in Arabic lookup 9 subtable" uni06A1.fina
EndChar

StartChar: uni06A9
Encoding: 1705 1705 81
GlifName: uni06A_9
Width: 1848
GlyphClass: 2
Flags: HW
AnchorPoint: "Anchor-10" 1199 1427 basechar 0
AnchorPoint: "Anchor-7" 810 -210 basechar 0
LayerCount: 2
Fore
SplineSet
1206 1020 m 1
 1481 792 1622 604 1622 452 c 0
 1622 99 1222 0 820 0 c 0
 421 0 96 96 96 451 c 0
 96 576 125 694 182 805 c 1
 293 770 l 1
 272 696 261 630 261 572 c 0
 261 339 501 291 837 291 c 0
 1034 291 1455 325 1456 416 c 0
 1456 483 1276 647 946 909 c 1
 1002 1184 l 1
 1769 1467 l 2
 1800 1479 1799 1467 1794 1436 c 2
 1759 1214 l 1
 1206 1020 l 1
EndSplineSet
Substitution2: "'init' Initial Forms in Arabic lookup 13 subtable" uniFB90
Substitution2: "'medi' Medial Forms in Arabic lookup 11 subtable" uniFB91
Substitution2: "'fina' Terminal Forms in Arabic lookup 9 subtable" uniFB8F
EndChar

StartChar: uni06AF
Encoding: 1711 1711 82
GlifName: uni06A_F_
Width: 1851
GlyphClass: 2
Flags: HW
AnchorPoint: "Anchor-10" 1278 1592 basechar 0
AnchorPoint: "Anchor-7" 810 -210 basechar 0
LayerCount: 2
Fore
SplineSet
1209 961 m 1
 1454 770 1578 605 1578 468 c 0
 1578 112 1205 0 820 0 c 0
 421 0 96 96 96 441 c 0
 96 566 125 694 182 805 c 1
 293 770 l 1
 272 696 261 630 261 572 c 0
 261 340 498 291 827 291 c 0
 1041 291 1425 318 1426 425 c 0
 1424 498 1231 639 949 850 c 1
 1005 1125 l 1
 1772 1408 l 2
 1803 1420 1802 1408 1797 1377 c 2
 1762 1155 l 1
 1209 961 l 1
EndSplineSet
Refer: 273 -1 N 1.1342 0 0 1.1342 979 -653 2
Substitution2: "'fina' Terminal Forms in Arabic lookup 9 subtable" uniFB93
Substitution2: "'medi' Medial Forms in Arabic lookup 11 subtable" uniFB95
Substitution2: "'init' Initial Forms in Arabic lookup 13 subtable" uniFB94
EndChar

StartChar: uni06BA
Encoding: 1722 1722 83
GlifName: afii57514
Width: 1395
GlyphClass: 2
Flags: HW
LayerCount: 2
Fore
SplineSet
678 -399 m 0
 325 -399 100 -216 100 114 c 0
 100 260 133 407 199 555 c 1
 318 516 l 1
 283 402 266 304 266 222 c 0
 266 -25 428 -118 683 -118 c 0
 890 -118 1129 -29 1129 156 c 0
 1129 217 1061 369 999 477 c 1
 1139 686 l 2
 1152 706 1168 701 1186 673 c 0
 1268 543 1308 396 1308 231 c 0
 1308 -166 1080 -399 678 -399 c 0
EndSplineSet
Substitution2: "'fina' Terminal Forms in Arabic lookup 9 subtable" uniFB9F
EndChar

StartChar: uni06F0
Encoding: 1776 1776 86
GlifName: uni06F_0
Width: 834
VWidth: 2311
GlyphClass: 2
Flags: HW
LayerCount: 2
Fore
SplineSet
417 420.561523438 m 128
 476.975585938 420.561523438 527.313476562 470.899414062 527.313476562 530.875 c 128
 527.313476562 590.850585938 476.975585938 641.188476562 417 641.188476562 c 128
 357.024414062 641.188476562 306.686523438 590.850585938 306.686523438 530.875 c 128
 306.686523438 470.899414062 357.024414062 420.561523438 417 420.561523438 c 128
417 264.416015625 m 132
 270.8828125 264.416015625 149.459960938 387.896484375 149.459960938 534.014648438 c 132
 149.459960938 680.1328125 270.8828125 802.583984375 417 802.583984375 c 132
 563.1171875 802.583984375 684.540039062 680.1328125 684.540039062 534.014648438 c 132
 684.540039062 387.896484375 563.1171875 264.416015625 417 264.416015625 c 132
EndSplineSet
PairPos2: "'kern' Horizontal Kerning lookup 0 subtable 6" uni06F7 dx=-46 dy=0 dh=-46 dv=0 dx=0 dy=0 dh=0 dv=0
PairPos2: "'kern' Horizontal Kerning lookup 0 subtable 6" uni06F6 dx=-46 dy=0 dh=-46 dv=0 dx=0 dy=0 dh=0 dv=0
PairPos2: "'kern' Horizontal Kerning lookup 0 subtable 6" uni06F4 dx=-46 dy=0 dh=-46 dv=0 dx=0 dy=0 dh=0 dv=0
PairPos2: "'kern' Horizontal Kerning lookup 0 subtable 6" uni06F3 dx=-46 dy=0 dh=-46 dv=0 dx=0 dy=0 dh=0 dv=0
PairPos2: "'kern' Horizontal Kerning lookup 0 subtable 6" uni06F2 dx=-46 dy=0 dh=-46 dv=0 dx=0 dy=0 dh=0 dv=0
EndChar

StartChar: uni06F4
Encoding: 1780 1780 90
GlifName: uni06F_4
Width: 1190
GlyphClass: 2
Flags: HW
LayerCount: 2
Fore
SplineSet
855 1178 m 0
 743 1178 665 1121 665 1004 c 0
 665 944 777 926 851 926 c 0
 939 926 1006 942 1071 971 c 1
 1090 785 l 1
 995 722 921 690 809 690 c 0
 709 690 587 727 492 782 c 1
 519 606 532 423 532 225 c 0
 532 175 531 109 523 58 c 0
 519 32 514 30 369 -2 c 1
 368 477 288 847 125 1190 c 1
 275 1384 l 2
 293 1407 307 1403 317 1375 c 0
 367 1243 423 1083 516 1014 c 1
 513 1041 511 1051 511 1068 c 0
 511 1250 618 1382 799 1382 c 0
 907 1382 996 1340 1064 1256 c 1
 1015 1143 l 1
 956 1166 902 1178 855 1178 c 0
EndSplineSet
PairPos2: "'kern' Horizontal Kerning lookup 0 subtable 6" uni06F8 dx=-70 dy=0 dh=-70 dv=0 dx=0 dy=0 dh=0 dv=0
PairPos2: "'kern' Horizontal Kerning lookup 0 subtable 6" uni06F5 dx=-70 dy=0 dh=-70 dv=0 dx=0 dy=0 dh=0 dv=0
EndChar

StartChar: uni06F5
Encoding: 1781 1781 91
GlifName: uni06F_5
Width: 1192
GlyphClass: 2
Flags: HW
LayerCount: 2
Fore
SplineSet
641 512 m 1
 685 326 756 253 853 253 c 0
 916 253 947 296 947 382 c 0
 947 533 821 708 568 972 c 1
 358 667 253 487 253 375 c 0
 253 292 288 250 356 250 c 0
 445 250 510 325 556 513 c 1
 641 512 l 1
604 165 m 1
 554 55 469 0 347 0 c 0
 174 0 87 112 87 338 c 0
 87 541 202 784 430 1131 c 1
 391 1172 l 1
 503 1364 l 2
 512 1378 525 1377 540 1362 c 0
 918 971 1107 660 1107 371 c 0
 1107 124 1024 0 860 0 c 0
 746 0 661 56 604 165 c 1
EndSplineSet
PairPos2: "'kern' Horizontal Kerning lookup 0 subtable 6" uni06F7 dx=-70 dy=0 dh=-70 dv=0 dx=0 dy=0 dh=0 dv=0
PairPos2: "'kern' Horizontal Kerning lookup 0 subtable 6" uni06F6 dx=-70 dy=0 dh=-70 dv=0 dx=0 dy=0 dh=0 dv=0
PairPos2: "'kern' Horizontal Kerning lookup 0 subtable 6" uni06F4 dx=-70 dy=0 dh=-70 dv=0 dx=0 dy=0 dh=0 dv=0
PairPos2: "'kern' Horizontal Kerning lookup 0 subtable 6" uni06F3 dx=-100 dy=0 dh=-100 dv=0 dx=0 dy=0 dh=0 dv=0
PairPos2: "'kern' Horizontal Kerning lookup 0 subtable 6" uni06F2 dx=-100 dy=0 dh=-100 dv=0 dx=0 dy=0 dh=0 dv=0
EndChar

StartChar: uni06F6
Encoding: 1782 1782 92
GlifName: uni06F_6
Width: 1041
GlyphClass: 2
Flags: HW
LayerCount: 2
Fore
SplineSet
569 1140 m 4
 440 1140 324 1073 323 958 c 4
 324 844 463 833 648 818 c 4
 666 817 703 841 721 851 c 4
 776 881 872 940 919 956 c 4
 949 966 963 961 952 914 c 6
 897 665 l 5
 689 576 484 392 230 -28 c 5
 136 52 l 6
 117.426554013 71.4082076041 121 94 135 122 c 4
 214 280 320 447 437 608 c 5
 237 664 162 770 162 935 c 4
 162 1189 346 1388 535 1388 c 4
 640 1388 732 1352 813 1281 c 5
 756 1114 l 5
 684 1133 622 1140 569 1140 c 4
EndSplineSet
EndChar

StartChar: uniFB7B
Encoding: 64379 64379 101
GlifName: uniF_B_7B_
Width: 1319
GlyphClass: 2
Flags: HW
AnchorPoint: "Anchor-7" 683 -846 basechar 0
AnchorPoint: "Anchor-10" 648 1142 basechar 0
LayerCount: 2
Fore
SplineSet
656.059570312 -361.559570312 m 5
 530.219726562 -234.83984375 l 5
 656.059570312 -108.120117188 l 5
 782.780273438 -234.83984375 l 5
 656.059570312 -361.559570312 l 5
799.5 -153.879882812 m 5
 672.780273438 -27.16015625 l 5
 799.5 99.5595703125 l 5
 926.219726562 -27.16015625 l 5
 799.5 -153.879882812 l 5
513.5 -153.879882812 m 5
 386.780273438 -27.16015625 l 5
 513.5 99.5595703125 l 5
 640.219726562 -27.16015625 l 5
 513.5 -153.879882812 l 5
EndSplineSet
Refer: 173 65186 N 1 0 0 1 0 0 2
EndChar

StartChar: uniFB8F
Encoding: 64399 64399 107
GlifName: uniF_B_8F_
Width: 2103
GlyphClass: 2
Flags: HW
AnchorPoint: "Anchor-7" 810 -210 basechar 0
AnchorPoint: "Anchor-10" 1199 1427 basechar 0
LayerCount: 2
Fore
SplineSet
1206 1020 m 1
 1312 925 1470 759 1677 521 c 0
 1808 370 1927 294 2091 294 c 2
 2104 294 l 2
 2121 294 2129 262 2129 197 c 2
 2129 124 l 2
 2129 41 2121 0 2104 0 c 2
 2091 0 l 2
 1888 0 1740 104 1588 311 c 1
 1537 97 1162 0 820 0 c 0
 421 0 96 96 96 441 c 0
 96 566 125 694 182 805 c 1
 293 770 l 1
 272 696 261 630 261 572 c 0
 261 339 501 291 837 291 c 0
 1051 291 1451 313 1451 418 c 0
 1451 478 1282 642 945 909 c 1
 1002 1184 l 1
 1769 1467 l 2
 1800 1479 1799 1467 1794 1436 c 2
 1759 1214 l 1
 1206 1020 l 1
EndSplineSet
EndChar

StartChar: uniFB93
Encoding: 64403 64403 111
GlifName: uniF_B_93
Width: 2054
GlyphClass: 2
Flags: HW
AnchorPoint: "Anchor-10" 1278 1592 basechar 0
AnchorPoint: "Anchor-7" 810 -210 basechar 0
LayerCount: 2
Fore
SplineSet
1209 961 m 1
 1314 864 1461 726 1645 549 c 0
 1820 379 1953 294 2046 294 c 2
 2058 294 l 2
 2075 294 2083 262 2083 197 c 2
 2083 124 l 2
 2083 41 2075 0 2058 0 c 2
 2046 0 l 2
 1878 0 1717 105 1559 315 c 1
 1478 97 1153 0 820 0 c 0
 421 0 96 96 96 451 c 0
 96 576 125 694 182 805 c 1
 293 770 l 1
 272 695 261 630 261 572 c 0
 261 341 498 291 827 291 c 0
 1041 291 1425 318 1426 425 c 0
 1424 498 1231 639 949 850 c 1
 1005 1125 l 1
 1772 1408 l 2
 1803 1420 1802 1408 1797 1377 c 2
 1762 1155 l 1
 1209 961 l 1
EndSplineSet
Refer: 273 -1 N 1.1342 0 0 1.1342 979 -653 2
EndChar

StartChar: uniFB94
Encoding: 64404 64404 112
GlifName: uniF_B_94
Width: 934
GlyphClass: 2
Flags: HW
AnchorPoint: "Anchor-10" 354 1582 basechar 0
AnchorPoint: "Anchor-7" 334 -245 basechar 0
LayerCount: 2
Fore
SplineSet
289 961 m 1
 539 764 666 592 666 444 c 0
 666 140 460 0 129 0 c 6
 -5 0 l 2
 -42 0 -60 48 -60 144 c 2
 -60 177 l 2
 -60 255 -42 294 -5 294 c 2
 126 294 l 6
 385 294 516 315 516 420 c 0
 516 497 326 631 29 850 c 1
 85 1125 l 1
 852 1408 l 2
 883 1420 882 1408 877 1377 c 2
 842 1155 l 1
 289 961 l 1
EndSplineSet
Refer: 273 -1 N 1.1342 0 0 1.1342 65 -653 2
EndChar

StartChar: uniFB95
Encoding: 64405 64405 113
GlifName: uniF_B_95
Width: 1135
GlyphClass: 2
Flags: HW
AnchorPoint: "Anchor-7" 334 -245 basechar 0
AnchorPoint: "Anchor-10" 354 1582 basechar 0
LayerCount: 2
Fore
SplineSet
289 961 m 1
 354 901 501 764 725 549 c 0
 902 379 1037 294 1128 294 c 2
 1140 294 l 2
 1157 294 1165 262 1165 197 c 2
 1165 124 l 2
 1165 41 1157 0 1140 0 c 2
 1128 0 l 2
 953 0 787 105 629 315 c 1
 617 123 385 0 129 0 c 2
 -5 0 l 2
 -42 0 -60 48 -60 144 c 2
 -60 177 l 2
 -60 255 -42 294 -5 294 c 2
 126 294 l 2
 378 294 506 316 506 420 c 0
 506 501 312 638 29 850 c 1
 85 1125 l 1
 852 1408 l 2
 883 1420 882 1408 877 1377 c 2
 842 1155 l 1
 289 961 l 1
EndSplineSet
Refer: 273 -1 N 1.1342 0 0 1.1342 65 -653 2
EndChar

StartChar: uniFB9F
Encoding: 64415 64415 115
GlifName: uniF_B_9F_
Width: 1463
GlyphClass: 2
Flags: HW
AnchorPoint: "Anchor-10" 575 1014 basechar 0
AnchorPoint: "Anchor-7" 451 -1000 basechar 0
LayerCount: 2
Fore
SplineSet
1302 47 m 1
 1289 -326 1065 -534 679 -535 c 0
 327 -534 100 -353 100 -23 c 0
 100 123 134 271 200 418 c 1
 318 379 l 1
 283 265 266 167 266 85 c 0
 266 -160 426 -255 677 -255 c 0
 886 -255 1129 -167 1129 19 c 0
 1129 100 1061 231 999 340 c 1
 1138 549 l 2
 1151 569 1164 565 1178 538 c 0
 1218 462 1274 364 1304 333 c 0
 1329 307 1369 294 1425 294 c 2
 1468 294 l 2
 1485 294 1493 262 1493 197 c 2
 1493 124 l 2
 1493 41 1485 0 1468 0 c 2
 1425 0 l 2
 1379 0 1338 16 1302 47 c 1
EndSplineSet
EndChar

StartChar: uniFBE8
Encoding: 64488 64488 118
GlifName: uniF_B_E_8
Width: 646
GlyphClass: 2
Flags: HW
AnchorPoint: "Anchor-10" 323 1251 basechar 0
AnchorPoint: "Anchor-7" 351 -250 basechar 0
LayerCount: 2
Fore
SplineSet
560 471 m 4
 560 172 394 0 105 0 c 6
 -5 0 l 6
 -42 0 -60 48 -60 144 c 6
 -60 177 l 6
 -60 255 -42 294 -5 294 c 6
 109 294 l 6
 264 294 364 299 364 373 c 4
 364 428 336 520 281 649 c 5
 417 825 l 6
 447 864 448 867 472 825 c 4
 530 725 560 606 560 471 c 4
EndSplineSet
EndChar

StartChar: uniFBE9
Encoding: 64489 64489 119
GlifName: uniF_B_E_9
Width: 728
GlyphClass: 2
Flags: HW
AnchorPoint: "Anchor-10" 377 1169 basechar 0
AnchorPoint: "Anchor-7" 351 -209 basechar 0
LayerCount: 2
Fore
SplineSet
-5 294 m 6
 104 294 l 6
 268 294 355 343 363 442 c 6
 378 614 l 5
 511 614 l 5
 527 445 l 6
 537 344 585 294 713 294 c 6
 733 294 l 6
 750 294 758 262 758 197 c 6
 758 124 l 6
 758 41 750 0 733 0 c 6
 712 0 l 6
 579 0 510 53 443 159 c 5
 374 53 256 0 109 0 c 6
 -5 0 l 6
 -42 0 -60 48 -60 144 c 6
 -60 177 l 6
 -60 255 -42 294 -5 294 c 6
EndSplineSet
EndChar

StartChar: uniFE73
Encoding: 65139 65139 127
GlifName: uniF_E_73
Width: 785
GlyphClass: 2
Flags: HW
AnchorPoint: "Anchor-10" 369 1242 basechar 0
AnchorPoint: "Anchor-7" 377 -188 basechar 0
LayerCount: 2
Fore
SplineSet
309 464 m 2
 309 275 439 180 699 180 c 2
 790 180 l 1
 790 3 l 1
 686 3 l 2
 296 3 101 150 101 444 c 2
 101 481 l 1
 309 481 l 1
 309 464 l 2
EndSplineSet
EndChar

StartChar: uniFE8E
Encoding: 65166 65166 153
GlifName: uniF_E_8E_
Width: 511
GlyphClass: 2
Flags: HW
AnchorPoint: "Anchor-10" 190 1500 basechar 0
AnchorPoint: "Anchor-7" 271 -220 basechar 0
LayerCount: 2
Fore
SplineSet
320 638 m 0
 323 401 304 294 489 294 c 2
 516 294 l 2
 533 294 541 262 541 197 c 2
 541 124 l 2
 541 41 533 0 516 0 c 2
 484 0 l 2
 114 0 127.560546875 282.99609375 124 680 c 0
 122 903 103 1092 70 1295 c 1
 248 1407 l 2
 302.009765625 1440.984375 303 1438 306 1372 c 0
 313.181640625 1214.0078125 317 862 320 638 c 0
EndSplineSet
EndChar

StartChar: uniFEA2
Encoding: 65186 65186 173
GlifName: uniF_E_A_2
Width: 1319
GlyphClass: 2
Flags: HW
AnchorPoint: "Anchor-7" 683 -846 basechar 0
AnchorPoint: "Anchor-10" 648 1142 basechar 0
LayerCount: 2
Fore
SplineSet
839 360 m 1
 572 289 273 126 273 -133 c 0
 273 -336 424 -438 725 -438 c 0
 899 -438 1028 -424 1154 -407 c 0
 1191 -402 1199 -425 1185 -450 c 2
 1108 -589 l 2
 1075 -649 1023 -683 952 -690 c 0
 896 -696 822 -699 730 -699 c 0
 341 -699 117 -536 117 -151 c 0
 117 179 312 414 699 550 c 1
 600 571 430 606 381 606 c 0
 316 606 250 566 183 487 c 1
 77 542 l 1
 149 748 247 865 388 865 c 0
 451 865 554 842 711 792 c 0
 835 752 1039 687 1213 687 c 0
 1225 687 1230 682 1226 671 c 2
 1130 416 l 1
 1078 409 1028 401 979 392 c 1
 985 321 1081 294 1295 294 c 2
 1324 294 l 2
 1341 294 1349 262 1349 197 c 2
 1349 124 l 2
 1349 41 1341 0 1324 0 c 2
 1244 0 l 2
 995 0 860 120 839 360 c 1
EndSplineSet
EndChar

StartChar: uniFEA3
Encoding: 65187 65187 174
GlifName: uniF_E_A_3
Width: 1320
GlyphClass: 2
Flags: HW
AnchorPoint: "Anchor-10" 544 1161 basechar 0
AnchorPoint: "Anchor-7" 571 -217 basechar 0
LayerCount: 2
Fore
SplineSet
201 470 m 1
 95 525 l 1
 178 741 290 873 463 873 c 0
 534 873 634 843 762 784 c 0
 1011 668 1107 626 1265 626 c 0
 1280 626 1288 624 1283 607 c 2
 1220 401 l 1
 1099 372 935 304 726 198 c 0
 467 66 282 0 172 0 c 2
 -5 0 l 2
 -42 0 -60 48 -60 144 c 2
 -60 177 l 2
 -60 255 -42 294 -5 294 c 2
 216 294 l 2
 446 294 652 375 850 480 c 1
 785 499 715 523 640 551 c 0
 545 586 476 604 437 604 c 0
 353 604 275 560 201 470 c 1
EndSplineSet
EndChar

StartChar: uniFEA4
Encoding: 65188 65188 175
GlifName: uniF_E_A_4
Width: 1346
GlyphClass: 2
Flags: HW
AnchorPoint: "Anchor-7" 571 -217 basechar 0
AnchorPoint: "Anchor-10" 544 1161 basechar 0
LayerCount: 2
Fore
SplineSet
201 470 m 1
 95 525 l 1
 178 741 290 873 463 873 c 0
 534 873 634 843 762 784 c 0
 1011 668 1107 626 1265 626 c 0
 1280 626 1288 624 1283 607 c 2
 1220 401 l 1
 1163 387 1085 366 1009 335 c 1
 1038 300 1092 294 1170 294 c 2
 1351 294 l 2
 1368 294 1376 262 1376 197 c 2
 1376 124 l 2
 1376 41 1368 0 1351 0 c 2
 1197 0 l 2
 996 0 885 85 852 266 c 1
 627 159 358 0 172 0 c 2
 -5 0 l 2
 -42 0 -60 48 -60 144 c 2
 -60 177 l 2
 -60 255 -42 294 -5 294 c 2
 216 294 l 2
 446 294 651 377 850 480 c 1
 785 499 715 523 640 551 c 0
 545 586 476 604 437 604 c 0
 353 604 275 560 201 470 c 1
EndSplineSet
EndChar

StartChar: uniFEAA
Encoding: 65194 65194 181
GlifName: uniF_E_A_A_
Width: 1122
GlyphClass: 2
Flags: HW
AnchorPoint: "Anchor-7" 440 -231 basechar 0
AnchorPoint: "Anchor-10" 624 1314 basechar 0
LayerCount: 2
Fore
SplineSet
806 204 m 5
 713 68 583 0 415 -0 c 4
 198 0 87 100 87 300 c 4
 87 330 95 377 110 440 c 5
 234 427 l 5
 235 399 l 6
 238 331 303 297 432 297 c 4
 612 297 702 331 702 399 c 4
 702 409 700 419 696 431 c 6
 542 879 l 5
 656 1024 l 6
 703 1083 700 1075 723 1005 c 6
 898 482 l 6
 940 357 1009 294 1106 294 c 6
 1127 294 l 6
 1144 294 1152 262 1152 197 c 6
 1152 124 l 6
 1152 41 1144 0 1127 0 c 6
 1096 0 l 6
 947 0 850 68 806 204 c 5
EndSplineSet
PairPos2: "'kern' Horizontal Kerning lookup 0 subtable 4" uniFB90 dx=-120 dy=0 dh=-120 dv=0 dx=0 dy=0 dh=0 dv=0
PairPos2: "'kern' Horizontal Kerning lookup 0 subtable 4" uni06A9 dx=-120 dy=0 dh=-120 dv=0 dx=0 dy=0 dh=0 dv=0
PairPos2: "'kern' Horizontal Kerning lookup 0 subtable 4" uniFB94 dx=-120 dy=0 dh=-120 dv=0 dx=0 dy=0 dh=0 dv=0
PairPos2: "'kern' Horizontal Kerning lookup 0 subtable 4" uni06AF dx=-120 dy=0 dh=-120 dv=0 dx=0 dy=0 dh=0 dv=0
EndChar

StartChar: uniFEAE
Encoding: 65198 65198 185
GlifName: uniF_E_A_E_
Width: 854
GlyphClass: 2
Flags: HW
AnchorPoint: "Anchor-7" 362 -662 basechar 0
AnchorPoint: "Anchor-10" 459 903 basechar 0
LayerCount: 2
Fore
SplineSet
697 39 m 1
 651 -326 342 -542 211 -542 c 0
 176 -542 134 -523 111 -508 c 2
 29 -456 l 2
 -55 -403 -51 -388 47 -352 c 0
 313 -250 520 -104 520 71 c 0
 520 129 473 214 372 346 c 1
 542 580 l 1
 542 580 632 440 698 352 c 0
 726 314 767 294 822 294 c 2
 849 294 l 2
 866 294 874 255 874 177 c 2
 874 124 l 2
 874 41 866 0 849 0 c 2
 817 0 l 2
 772 0 732 13 697 39 c 1
EndSplineSet
PairPos2: "'kern' Horizontal Kerning lookup 0 subtable 3" uni06C0 dx=-128 dy=0 dh=-128 dv=0 dx=0 dy=0 dh=0 dv=0
PairPos2: "'kern' Horizontal Kerning lookup 0 subtable 3" uni0621 dx=-128 dy=0 dh=-128 dv=0 dx=0 dy=0 dh=0 dv=0
PairPos2: "'kern' Horizontal Kerning lookup 0 subtable 2" uni0648 dx=-43 dy=0 dh=-43 dv=0 dx=0 dy=0 dh=0 dv=0
PairPos2: "'kern' Horizontal Kerning lookup 0 subtable 0" uniFB58 dx=20 dy=0 dh=20 dv=0 dx=0 dy=0 dh=0 dv=0
PairPos2: "'kern' Horizontal Kerning lookup 0 subtable 0" uni0644 dx=-43 dy=0 dh=-43 dv=0 dx=0 dy=0 dh=0 dv=0
PairPos2: "'kern' Horizontal Kerning lookup 0 subtable 0" uni0642 dx=-43 dy=0 dh=-43 dv=0 dx=0 dy=0 dh=0 dv=0
PairPos2: "'kern' Horizontal Kerning lookup 0 subtable 0" uni0632 dx=-43 dy=0 dh=-43 dv=0 dx=0 dy=0 dh=0 dv=0
PairPos2: "'kern' Horizontal Kerning lookup 0 subtable 0" uni0631 dx=-43 dy=0 dh=-43 dv=0 dx=0 dy=0 dh=0 dv=0
PairPos2: "'kern' Horizontal Kerning lookup 0 subtable 0" uniFB8A dx=-43 dy=0 dh=-43 dv=0 dx=0 dy=0 dh=0 dv=0
PairPos2: "'kern' Horizontal Kerning lookup 0 subtable 0" uni0698 dx=-43 dy=0 dh=-43 dv=0 dx=0 dy=0 dh=0 dv=0
PairPos2: "'kern' Horizontal Kerning lookup 0 subtable 0" uniFB7C dx=-128 dy=0 dh=-128 dv=0 dx=0 dy=0 dh=0 dv=0
PairPos2: "'kern' Horizontal Kerning lookup 0 subtable 0" uni06CC dx=-43 dy=0 dh=-43 dv=0 dx=0 dy=0 dh=0 dv=0
PairPos2: "'kern' Horizontal Kerning lookup 0 subtable 0" uniFEEB dx=-128 dy=0 dh=-128 dv=0 dx=0 dy=0 dh=0 dv=0
PairPos2: "'kern' Horizontal Kerning lookup 0 subtable 0" uniFEDF dx=-128 dy=0 dh=-128 dv=0 dx=0 dy=0 dh=0 dv=0
PairPos2: "'kern' Horizontal Kerning lookup 0 subtable 0" uniFB90 dx=-213 dy=0 dh=-213 dv=0 dx=0 dy=0 dh=0 dv=0
PairPos2: "'kern' Horizontal Kerning lookup 0 subtable 0" uni06A9 dx=-213 dy=0 dh=-213 dv=0 dx=0 dy=0 dh=0 dv=0
PairPos2: "'kern' Horizontal Kerning lookup 0 subtable 0" uni0649 dx=-43 dy=0 dh=-43 dv=0 dx=0 dy=0 dh=0 dv=0
PairPos2: "'kern' Horizontal Kerning lookup 0 subtable 0" uni0647 dx=-128 dy=0 dh=-128 dv=0 dx=0 dy=0 dh=0 dv=0
PairPos2: "'kern' Horizontal Kerning lookup 0 subtable 0" uniFEE7 dx=-128 dy=0 dh=-128 dv=0 dx=0 dy=0 dh=0 dv=0
PairPos2: "'kern' Horizontal Kerning lookup 0 subtable 0" uniFEE3 dx=-128 dy=0 dh=-128 dv=0 dx=0 dy=0 dh=0 dv=0
PairPos2: "'kern' Horizontal Kerning lookup 0 subtable 0" uni0645 dx=-128 dy=0 dh=-128 dv=0 dx=0 dy=0 dh=0 dv=0
PairPos2: "'kern' Horizontal Kerning lookup 0 subtable 0" uniFEDB dx=-213 dy=0 dh=-213 dv=0 dx=0 dy=0 dh=0 dv=0
PairPos2: "'kern' Horizontal Kerning lookup 0 subtable 0" uniFED7 dx=-128 dy=0 dh=-128 dv=0 dx=0 dy=0 dh=0 dv=0
PairPos2: "'kern' Horizontal Kerning lookup 0 subtable 0" uniFED3 dx=-128 dy=0 dh=-128 dv=0 dx=0 dy=0 dh=0 dv=0
PairPos2: "'kern' Horizontal Kerning lookup 0 subtable 0" uni0641 dx=-128 dy=0 dh=-128 dv=0 dx=0 dy=0 dh=0 dv=0
PairPos2: "'kern' Horizontal Kerning lookup 0 subtable 0" uniFECF dx=-128 dy=0 dh=-128 dv=0 dx=0 dy=0 dh=0 dv=0
PairPos2: "'kern' Horizontal Kerning lookup 0 subtable 0" uniFECB dx=-128 dy=0 dh=-128 dv=0 dx=0 dy=0 dh=0 dv=0
PairPos2: "'kern' Horizontal Kerning lookup 0 subtable 0" uniFEC7 dx=-128 dy=0 dh=-128 dv=0 dx=0 dy=0 dh=0 dv=0
PairPos2: "'kern' Horizontal Kerning lookup 0 subtable 0" uni0638 dx=-128 dy=0 dh=-128 dv=0 dx=0 dy=0 dh=0 dv=0
PairPos2: "'kern' Horizontal Kerning lookup 0 subtable 0" uniFEC3 dx=-128 dy=0 dh=-128 dv=0 dx=0 dy=0 dh=0 dv=0
PairPos2: "'kern' Horizontal Kerning lookup 0 subtable 0" uni0637 dx=-128 dy=0 dh=-128 dv=0 dx=0 dy=0 dh=0 dv=0
PairPos2: "'kern' Horizontal Kerning lookup 0 subtable 0" uniFEBF dx=-128 dy=0 dh=-128 dv=0 dx=0 dy=0 dh=0 dv=0
PairPos2: "'kern' Horizontal Kerning lookup 0 subtable 0" uni0636 dx=-128 dy=0 dh=-128 dv=0 dx=0 dy=0 dh=0 dv=0
PairPos2: "'kern' Horizontal Kerning lookup 0 subtable 0" uniFEBB dx=-128 dy=0 dh=-128 dv=0 dx=0 dy=0 dh=0 dv=0
PairPos2: "'kern' Horizontal Kerning lookup 0 subtable 0" uni0635 dx=-128 dy=0 dh=-128 dv=0 dx=0 dy=0 dh=0 dv=0
PairPos2: "'kern' Horizontal Kerning lookup 0 subtable 0" uniFEB7 dx=-128 dy=0 dh=-128 dv=0 dx=0 dy=0 dh=0 dv=0
PairPos2: "'kern' Horizontal Kerning lookup 0 subtable 0" uni0634 dx=-128 dy=0 dh=-128 dv=0 dx=0 dy=0 dh=0 dv=0
PairPos2: "'kern' Horizontal Kerning lookup 0 subtable 0" uniFEB3 dx=-128 dy=0 dh=-128 dv=0 dx=0 dy=0 dh=0 dv=0
PairPos2: "'kern' Horizontal Kerning lookup 0 subtable 0" uni0633 dx=-128 dy=0 dh=-128 dv=0 dx=0 dy=0 dh=0 dv=0
PairPos2: "'kern' Horizontal Kerning lookup 0 subtable 0" uni0630 dx=-128 dy=0 dh=-128 dv=0 dx=0 dy=0 dh=0 dv=0
PairPos2: "'kern' Horizontal Kerning lookup 0 subtable 0" uni062F dx=-128 dy=0 dh=-128 dv=0 dx=0 dy=0 dh=0 dv=0
PairPos2: "'kern' Horizontal Kerning lookup 0 subtable 0" uniFEA7 dx=-128 dy=0 dh=-128 dv=0 dx=0 dy=0 dh=0 dv=0
PairPos2: "'kern' Horizontal Kerning lookup 0 subtable 0" uniFEA3 dx=-128 dy=0 dh=-128 dv=0 dx=0 dy=0 dh=0 dv=0
PairPos2: "'kern' Horizontal Kerning lookup 0 subtable 0" uniFE9F dx=-128 dy=0 dh=-128 dv=0 dx=0 dy=0 dh=0 dv=0
PairPos2: "'kern' Horizontal Kerning lookup 0 subtable 0" uniFE9B dx=-128 dy=0 dh=-128 dv=0 dx=0 dy=0 dh=0 dv=0
PairPos2: "'kern' Horizontal Kerning lookup 0 subtable 0" uni062B dx=-128 dy=0 dh=-128 dv=0 dx=0 dy=0 dh=0 dv=0
PairPos2: "'kern' Horizontal Kerning lookup 0 subtable 0" uniFE97 dx=-128 dy=0 dh=-128 dv=0 dx=0 dy=0 dh=0 dv=0
PairPos2: "'kern' Horizontal Kerning lookup 0 subtable 0" uni062A dx=-128 dy=0 dh=-128 dv=0 dx=0 dy=0 dh=0 dv=0
PairPos2: "'kern' Horizontal Kerning lookup 0 subtable 0" uni0629 dx=-128 dy=0 dh=-128 dv=0 dx=0 dy=0 dh=0 dv=0
PairPos2: "'kern' Horizontal Kerning lookup 0 subtable 0" uni0628 dx=-128 dy=0 dh=-128 dv=0 dx=0 dy=0 dh=0 dv=0
PairPos2: "'kern' Horizontal Kerning lookup 0 subtable 0" uni0627 dx=-150 dy=0 dh=-150 dv=0 dx=0 dy=0 dh=0 dv=0
PairPos2: "'kern' Horizontal Kerning lookup 0 subtable 0" uni0622 dx=-150 dy=0 dh=-150 dv=0 dx=0 dy=0 dh=0 dv=0
PairPos2: "'kern' Horizontal Kerning lookup 0 subtable 0" uniFB94 dx=-235 dy=0 dh=-235 dv=0 dx=0 dy=0 dh=0 dv=0
PairPos2: "'kern' Horizontal Kerning lookup 0 subtable 0" uni06AF dx=-235 dy=0 dh=-235 dv=0 dx=0 dy=0 dh=0 dv=0
PairPos2: "'kern' Horizontal Kerning lookup 0 subtable 0" uniFB56 dx=-128 dy=0 dh=-128 dv=0 dx=0 dy=0 dh=0 dv=0
PairPos2: "'kern' Horizontal Kerning lookup 0 subtable 0" uni067E dx=-128 dy=0 dh=-128 dv=0 dx=0 dy=0 dh=0 dv=0
EndChar

StartChar: uniFEB2
Encoding: 65202 65202 189
GlifName: uniF_E_B_2
Width: 2453
GlyphClass: 2
Flags: HW
AnchorPoint: "Anchor-7" 672 -732 basechar 0
AnchorPoint: "Anchor-10" 1688 981 basechar 0
LayerCount: 2
Fore
SplineSet
1456 0 m 4
 1404 0 1351 16 1301 47 c 1
 1288 -326 1064 -534 678 -535 c 0
 326 -534 99 -353 99 -23 c 0
 99 123 133 271 199 418 c 1
 317 379 l 1
 282 265 265 167 265 85 c 0
 265 -160 427 -255 677 -255 c 0
 888 -255 1128 -165 1128 20 c 0
 1128 91 1060 232 998 340 c 1
 1137 549 l 2
 1150 569 1163 565 1177 538 c 0
 1214 467 1257.44293949 393.380121815 1303 353 c 0
 1347 314 1408 294 1461 294 c 0
 1561 294 1615.15034869 341.990544108 1621 435 c 2
 1631 594 l 1
 1764 594 l 1
 1774 441 l 2
 1781 343 1837 294 1942 294 c 0
 2036 294 2085 344 2090 441 c 2
 2098 614 l 1
 2240 614 l 1
 2247 442 l 2
 2251 344 2303 294 2433 294 c 2
 2462 294 l 2
 2479 294 2487 262 2487 197 c 2
 2487 124 l 2
 2487 41 2479 0 2462 0 c 2
 2432 0 l 2
 2303 0 2227 49 2172 149 c 1
 2111 49 2030 0 1944 0 c 0
 1825 0 1747 51 1694 153 c 1
 1629 51 1547 0 1456 0 c 4
EndSplineSet
EndChar

StartChar: uniFEB3
Encoding: 65203 65203 190
GlifName: uniF_E_B_3
Width: 1532
GlyphClass: 2
Flags: HW
AnchorPoint: "Anchor-10" 867 968 basechar 0
AnchorPoint: "Anchor-7" 830 -225 basechar 0
LayerCount: 2
Fore
SplineSet
1114 295 m 0
 1192 295 1254 328 1254 401 c 0
 1254 473 1228 496 1169 615 c 1
 1305 791 l 2
 1331 826 1336 830 1360 791 c 0
 1420 691 1449 579 1449 456 c 0
 1449 250 1330 0 1126 -0 c 16
 1007 0 921 51 868 153 c 1
 803 51 720 0 629 0 c 4
 513 0 434 49 380 148 c 1
 305 49 195 0 49 0 c 2
 -5 0 l 2
 -42 0 -60 48 -60 144 c 2
 -60 177 l 2
 -60 255 -42 294 -5 294 c 2
 46 294 l 2
 214 294 301 342 308 438 c 2
 319 593 l 1
 452 593 l 1
 462 445 l 2
 469 345 526 296 635 296 c 0
 735 296 789 342 795 435 c 2
 805 594 l 1
 938 594 l 1
 948 441 l 2
 955 344 1010 295 1114 295 c 0
EndSplineSet
EndChar

StartChar: uniFEB4
Encoding: 65204 65204 191
GlifName: uniF_E_B_4
Width: 1631
GlyphClass: 2
Flags: HW
AnchorPoint: "Anchor-7" 838 -222 basechar 0
AnchorPoint: "Anchor-10" 862 963 basechar 0
LayerCount: 2
Fore
SplineSet
1118 -0 m 0
 999 0 921 51 868 153 c 1
 803 51 721 0 630 0 c 0
 514 0 434 49 380 148 c 1
 305 49 195 0 49 0 c 2
 -5 0 l 2
 -42 0 -60 48 -60 144 c 2
 -60 177 l 2
 -60 255 -42 294 -5 294 c 2
 46 294 l 2
 214 294 301 342 308 438 c 2
 319 593 l 1
 452 593 l 1
 462 445 l 2
 469 345 526 296 635 296 c 0
 735 296 789 342 795 435 c 2
 805 594 l 1
 938 594 l 1
 948 441 l 2
 955 343 1011 295 1116 295 c 0
 1210 295 1259 344 1264 441 c 2
 1272 614 l 1
 1414 614 l 1
 1421 442 l 2
 1425 344 1477 294 1607 294 c 2
 1636 294 l 2
 1653 294 1661 262 1661 197 c 2
 1661 124 l 2
 1661 41 1653 0 1636 0 c 2
 1606 0 l 2
 1477 0 1401 49 1346 149 c 1
 1285 49 1204 0 1118 -0 c 0
EndSplineSet
EndChar

StartChar: uniFEBA
Encoding: 65210 65210 197
GlifName: uniF_E_B_A_
Width: 2651
GlyphClass: 2
Flags: HW
AnchorPoint: "Anchor-7" 672 -732 basechar 0
AnchorPoint: "Anchor-10" 2103 1165 basechar 0
LayerCount: 2
Fore
SplineSet
1816 2 m 2
 1582 2 l 2
 1464 2 1371 16 1302 44 c 1
 1289 -328 1063 -534 677 -535 c 0
 327 -534 100 -352 100 -23 c 0
 100 123 134 271 200 418 c 1
 318 379 l 1
 283 265 266 167 266 85 c 0
 266 -160 430 -255 682 -255 c 0
 901 -255 1129 -162 1129 13 c 0
 1129 80 1063 229 998 340 c 1
 1138 550 l 18
 1150 569 1162 565 1176 540 c 2
 1244 425 l 2
 1287.84765625 348.599609375 1365 300 1445 297 c 1
 1598 510 1916 842 2173 842 c 0
 2378 842 2515 722 2515 499 c 0
 2515 421 2488 354 2456 294 c 1
 2656 294 l 2
 2673 294 2681 262 2681 197 c 2
 2681 124 l 2
 2681 41 2672 2 2657 2 c 2
 2616 2 l 2
 2502 2 2374 24 2269 109 c 1
 2112 25 1978 2 1816 2 c 2
1607 296 m 1
 1907 296 l 2
 2163 296 2319 297 2319 408 c 0
 2319 519 2231 570 2104 570 c 0
 1956 570 1790 479 1607 296 c 1
EndSplineSet
EndChar

StartChar: uniFEBB
Encoding: 65211 65211 198
GlifName: uniF_E_B_B_
Width: 1685
GlyphClass: 2
Flags: HW
AnchorPoint: "Anchor-7" 879 -239 basechar 0
AnchorPoint: "Anchor-10" 1148 1164 basechar 0
LayerCount: 2
Fore
SplineSet
1254 839 m 0
 1460 839 1597 719 1596 495 c 0
 1595 175 1281 0 897 -0 c 2
 663 -0 l 2
 535 0 417 44 324 153 c 5
 236 44 137 0 28 0 c 2
 -5 0 l 2
 -42 0 -60 48 -60 144 c 2
 -60 177 l 2
 -60 255 -42 294 -5 294 c 2
 9 294 l 2
 145 294 218 343 229 442 c 2
 248 614 l 1
 381 614 l 1
 401 445 l 2
 411 355 458 305 526 295 c 1
 679 508 1007 839 1254 839 c 0
688 294 m 1
 988 294 l 2
 1244 294 1400 295 1400 406 c 0
 1400 517 1312 568 1185 568 c 0
 1037 568 871 477 688 294 c 1
EndSplineSet
EndChar

StartChar: uniFEBC
Encoding: 65212 65212 199
GlifName: uniF_E_B_C_
Width: 1733
GlyphClass: 2
Flags: HW
AnchorPoint: "Anchor-7" 879 -239 basechar 0
AnchorPoint: "Anchor-10" 1150 1164 basechar 0
LayerCount: 2
Fore
SplineSet
688 294 m 5
 988 294 l 6
 1244 294 1400 295 1400 406 c 4
 1400 517 1312 568 1185 568 c 4
 1037 568 871 477 688 294 c 5
1254 839 m 4
 1459 839 1596 719 1596 497 c 4
 1596 420 1576 354 1544 294 c 5
 1738 294 l 6
 1755 294 1763 262 1763 197 c 6
 1763 124 l 6
 1763 41 1755 0 1738 0 c 6
 1697 0 l 6
 1583 0 1455 22 1350 107 c 5
 1193 23 1059 -1.98392781462e-14 897 0 c 6
 663 0 l 6
 535 0 417 44 324 153 c 5
 236 44 137 0 28 0 c 6
 -5 0 l 6
 -42 0 -60 48 -60 144 c 6
 -60 177 l 6
 -60 255 -42 294 -5 294 c 6
 9 294 l 6
 145 294 218 343 229 442 c 6
 248 614 l 5
 381 614 l 5
 401 445 l 6
 411 355 458 305 526 295 c 5
 679 508 1007 839 1254 839 c 4
EndSplineSet
EndChar

StartChar: uniFEC2
Encoding: 65218 65218 205
GlifName: uniF_E_C_2
Width: 1582
GlyphClass: 2
Flags: HW
AnchorPoint: "Anchor-10" 448 1500 basechar 0
AnchorPoint: "Anchor-7" 697 -212 basechar 0
LayerCount: 2
Fore
SplineSet
222 0 m 5
 61 223 l 2
 25 260 15 294 88 294 c 2
 409 294 l 1
 409 304 409 315 409 327 c 1
 407 567 391 1061 352 1288 c 1
 537 1406 l 2
 593 1442 595 1442 595 1367 c 2
 595 531 l 1
 786 737 957 842 1109 842 c 0
 1316 842 1451 721 1451 499 c 0
 1451 422 1433 354 1401 294 c 1
 1587 294 l 2
 1604 294 1612 262 1612 197 c 2
 1612 124 l 2
 1612 41 1604 0 1587 0 c 2
 1546 0 l 2
 1432 0 1304 22 1199 107 c 1
 1042 23 908 0 746 0 c 2
 222 0 l 5
1255 408 m 0
 1255 519 1167 570 1040 570 c 0
 892 570 726 479 543 296 c 1
 843 296 l 2
 1099 296 1255 297 1255 408 c 0
EndSplineSet
EndChar

StartChar: uniFEC3
Encoding: 65219 65219 206
GlifName: uniF_E_C_3
Width: 1296
GlyphClass: 2
Flags: HW
AnchorPoint: "Anchor-7" 493 -220 basechar 0
AnchorPoint: "Anchor-10" 225 1500 basechar 0
LayerCount: 2
Fore
SplineSet
351 531 m 1
 542 739 713 842 865 842 c 0
 1072 842 1207 721 1207 499 c 0
 1207 177 891 0 508 0 c 2
 -5 0 l 2
 -42 0 -60 48 -60 144 c 2
 -60 177 l 2
 -60 255 -42 294 -5 294 c 2
 165 294 l 1
 165 304 165 315 165 327 c 1
 163 567 147 1063 108 1288 c 1
 293 1406 l 2
 349 1442 351 1442 351 1367 c 2
 351 531 l 1
1011 408 m 0
 1011 519 923 570 796 570 c 0
 648 570 482 479 299 296 c 1
 599 296 l 2
 855 296 1011 297 1011 408 c 0
EndSplineSet
EndChar

StartChar: uniFEC4
Encoding: 65220 65220 207
GlifName: uniF_E_C_4
Width: 1339
GlyphClass: 2
Flags: HW
AnchorPoint: "Anchor-7" 498 -216 basechar 0
AnchorPoint: "Anchor-10" 228 1500 basechar 0
LayerCount: 2
Fore
SplineSet
-5 0 m 6
 -42 0 -60 48 -60 144 c 2
 -60 177 l 2
 -60 255 -42 294 -5 294 c 2
 165 294 l 1
 165 304 165 315 165 327 c 1
 163 567 147 1063 108 1288 c 1
 293 1406 l 2
 349 1442 351 1442 351 1367 c 2
 351 531 l 1
 542 739 713 842 865 842 c 0
 1072 842 1207 721 1207 499 c 0
 1207 422 1189 354 1157 294 c 1
 1351 294 l 2
 1368 294 1376 262 1376 197 c 2
 1376 124 l 2
 1376 41 1369 0 1351 0 c 2
 1310 0 l 2
 1196 0 1068 22 963 107 c 1
 806 23 672 0 510 0 c 2
 -5 0 l 6
1011 408 m 0
 1011 519 923 570 796 570 c 0
 648 570 482 479 299 296 c 1
 599 296 l 2
 855 296 1011 297 1011 408 c 0
EndSplineSet
EndChar

StartChar: uniFECA
Encoding: 65226 65226 213
GlifName: uniF_E_C_A_
Width: 1263
GlyphClass: 2
Flags: HW
AnchorPoint: "Anchor-7" 683 -846 basechar 0
AnchorPoint: "Anchor-10" 660 1195 basechar 0
LayerCount: 2
Fore
SplineSet
708 851 m 0
 930 851 1039 803 1039 695 c 0
 1039 602 988 518 876 441 c 1
 881 336 986 294 1228 294 c 2
 1268 294 l 2
 1285 294 1293 262 1293 197 c 2
 1293 124 l 2
 1293 41 1285 0 1268 0 c 2
 1239 0 l 2
 919 0 759 111 727 338 c 1
 417 220 252 64 252 -132 c 0
 252 -336 423 -438 745 -438 c 0
 901 -438 1036 -422 1154 -407 c 0
 1193 -402 1200 -423 1185 -450 c 2
 1108 -589 l 2
 1086 -629 1056 -655 1019 -671 c 0
 956 -698 873 -699 771 -699 c 0
 353 -699 96 -561 96 -155 c 0
 96 145 281 380 631 552 c 1
 610 582 504 611 315 636 c 1
 315 771 l 1
 403 824 534 851 708 851 c 0
EndSplineSet
EndChar

StartChar: uniFECB
Encoding: 65227 65227 214
GlifName: uniF_E_C_B_
Width: 1023
GlyphClass: 2
Flags: HW
AnchorPoint: "Anchor-10" 502 1235 basechar 0
AnchorPoint: "Anchor-7" 488 -223 basechar 0
LayerCount: 2
Fore
SplineSet
129 514 m 0
 129 738 321 940 526 941 c 0
 666 941 768 890 846 790 c 1
 795 646 l 1
 695 680 639 691 578 691 c 0
 448 691 304 587 304 511 c 0
 304 489 432 356 534 340 c 1
 890 423 l 2
 930 433 947 422 940 389 c 2
 892 167 l 1
 593 97 236 0 43 0 c 2
 -5 0 l 2
 -42 0 -60 48 -60 144 c 2
 -60 177 l 2
 -60 255 -42 294 -5 294 c 2
 212 294 l 1
 164 364 129 441 129 514 c 0
EndSplineSet
EndChar

StartChar: uniFECC
Encoding: 65228 65228 215
GlifName: uniF_E_C_C_
Width: 959
GlyphClass: 2
Flags: HW
AnchorPoint: "Anchor-10" 503 1118 basechar 0
AnchorPoint: "Anchor-7" 470 -222 basechar 0
LayerCount: 2
Fore
SplineSet
537 778 m 0
 759 778 865 727 865 616 c 0
 865 549 809 469 697 374 c 1
 761 324 812 294 924 294 c 2
 964 294 l 2
 981 294 989 262 989 197 c 2
 989 124 l 2
 989 41 981 0 964 0 c 2
 921 0 l 2
 766 0 662 60 560 180 c 1
 439 60 275 0 86 0 c 2
 -5 0 l 2
 -42 0 -60 48 -60 144 c 2
 -60 177 l 2
 -60 255 -42 294 -5 294 c 2
 114 294 l 6
 311 294 418 322 483 379 c 1
 425 482 309 543 142 563 c 1
 142 698 l 1
 229 751 360 778 537 778 c 0
EndSplineSet
EndChar

StartChar: uniFEDA
Encoding: 65242 65242 229
GlifName: uniF_E_D_A_
Width: 1936
GlyphClass: 2
Flags: HW
AnchorPoint: "Anchor-10" 970 1365 basechar 0
AnchorPoint: "Anchor-7" 885 -196 basechar 0
LayerCount: 2
Fore
SplineSet
891 698 m 4
 965 698 1076 715 1076 774 c 4
 1076 804 1031 828 940 848 c 4
 827 872 771 937 771 1045 c 4
 771 1173 878 1247 1089 1276 c 4
 1123 1282 1142 1271 1132 1241 c 6
 1096 1137 l 5
 933 1121 850 1087 850 1037 c 4
 850 1007 895 984 986 968 c 4
 1104 947 1166 891 1166 774 c 4
 1166 628 1043 560 887 560 c 4
 810 560 745 571 671 595 c 5
 684 736 l 5
 756 711 825 698 891 698 c 4
1551 576 m 0
 1551 716 1530 1169 1512 1288 c 1
 1700 1406 l 2
 1744.88982707 1434.17552976 1750 1446 1750 1368 c 2
 1750 719 l 2
 1750 490 1802 315 1904 315 c 2
 1940 315 l 1
 1957 316 1966 276 1966 197 c 2
 1966 124 l 2
 1966 41 1958 0 1941 0 c 2
 1914 0 l 2
 1794 0 1705 71 1644 202 c 1
 1506 45 1241 0 843 0 c 0
 427 0 96 88 96 451 c 0
 96 582 126 705 186 822 c 1
 284 780 l 1
 262 701 251 632 251 574 c 0
 250 337 495 292 844 292 c 0
 1193 292 1412 321 1500 378 c 0
 1551 411 1551 483 1551 576 c 0
EndSplineSet
EndChar

StartChar: uniFEDB
Encoding: 65243 65243 230
GlifName: uniF_E_D_B_
Width: 931
GlyphClass: 2
Flags: HW
AnchorPoint: "Anchor-7" 334 -245 basechar 0
AnchorPoint: "Anchor-10" 343 1459 basechar 0
LayerCount: 2
Fore
SplineSet
-5 0 m 2
 -42 0 -60 48 -60 144 c 2
 -60 177 l 2
 -60 255 -42 294 -5 294 c 2
 122 294 l 6
 356 294 537 298 539 416 c 0
 539 473 369 638 29 909 c 1
 85 1184 l 1
 852 1467 l 2
 883.182491045 1478.50540413 882 1467 877 1436 c 2
 842 1214 l 1
 289 1020 l 1
 567 792 705 604 705 452 c 0
 705 123 450 0 127 0 c 6
 -5 0 l 2
EndSplineSet
EndChar

StartChar: uniFEDC
Encoding: 65244 65244 231
GlifName: uniF_E_D_C_
Width: 1192
GlyphClass: 2
Flags: HW
AnchorPoint: "Anchor-7" 334 -245 basechar 0
AnchorPoint: "Anchor-10" 362 1449 basechar 0
LayerCount: 2
Fore
SplineSet
289 1020 m 1
 397 925 554 759 761 521 c 0
 892 370 1020 294 1184 294 c 2
 1197 294 l 2
 1214 294 1222 262 1222 197 c 2
 1222 124 l 2
 1222 41 1214 0 1197 0 c 2
 1184 0 l 2
 980 0 823 105 672 313 c 1
 585 104 406 0 124 0 c 2
 -5 0 l 2
 -42 0 -60 48 -60 144 c 2
 -60 177 l 2
 -60 255 -42 294 -5 294 c 2
 121 294 l 2
 342 294 527 300 527 418 c 0
 527 484 361 647 29 909 c 1
 85 1184 l 1
 852 1467 l 2
 883 1479 882 1467 877 1436 c 2
 842 1214 l 1
 289 1020 l 1
EndSplineSet
EndChar

StartChar: uniFEDE
Encoding: 65246 65246 233
GlifName: uniF_E_D_E_
Width: 1399
GlyphClass: 2
Flags: HW
AnchorPoint: "Anchor-10" 566 1004 basechar 0
AnchorPoint: "Anchor-7" 647 -716 basechar 0
LayerCount: 2
Fore
SplineSet
649 -509 m 0
 312 -509 90 -317 90 4 c 0
 90 150 124 297 190 445 c 1
 308 406 l 1
 273 292 256 193 256 111 c 0
 256 -128 415 -228 654 -228 c 0
 884 -228 1037 -151 1037 64 c 0
 1037 238 1005 589 943 1286 c 1
 1119 1401 l 2
 1184.69987104 1443.92889301 1187.79757082 1447.99510044 1190 1357 c 2
 1209 572 l 2
 1213 386 1274 294 1382 294 c 2
 1404 294 l 2
 1421 294 1429 262 1429 197 c 2
 1429 124 l 2
 1429 41 1421 0 1404 0 c 2
 1376 0 l 2
 1306 0 1239 18 1203 52 c 1
 1203 -302 1015 -509 649 -509 c 0
EndSplineSet
EndChar

StartChar: uniFEDF
Encoding: 65247 65247 234
GlifName: uniF_E_D_F_
Width: 556
GlyphClass: 2
Flags: HW
AnchorPoint: "Anchor-10" 249 1534 basechar 0
AnchorPoint: "Anchor-7" 183 -242 basechar 0
LayerCount: 2
Fore
SplineSet
-5 294 m 2
 17 294 l 2
 208 294 229 322 229 518 c 0
 229 776 206 1000 166 1286 c 1
 345 1414 l 2
 402 1455 411 1470 413 1381 c 0
 418 1105 428 839 428 562 c 0
 428 203 333 -3.82089801334e-14 21 0 c 2
 -5 0 l 2
 -42 0 -60 48 -60 144 c 2
 -60 177 l 2
 -60 255 -42 294 -5 294 c 2
EndSplineSet
EndChar

StartChar: uniFEE0
Encoding: 65248 65248 235
GlifName: uniF_E_E_0
Width: 651
GlyphClass: 2
Flags: HW
AnchorPoint: "Anchor-10" 311 1537 basechar 0
AnchorPoint: "Anchor-7" 295 -238 basechar 0
LayerCount: 2
Fore
SplineSet
-5 294 m 2
 11 294 l 2
 239 294 260 371 260 567 c 4
 260 844 236 1078 214 1291 c 5
 405 1420 l 6
 452 1452 458 1454 458 1382 c 6
 458 552 l 6
 459 336 433 294 618 294 c 2
 656 294 l 2
 673 294 681 262 681 197 c 2
 681 124 l 2
 681 41 673 0 656 0 c 2
 607 0 l 2
 466 0 399 53 345 158 c 5
 275 53 153 0 37 0 c 2
 -5 0 l 2
 -42 0 -60 48 -60 144 c 2
 -60 177 l 2
 -60 255 -42 294 -5 294 c 2
EndSplineSet
EndChar

StartChar: uniFEE2
Encoding: 65250 65250 237
GlifName: uniF_E_E_2
Width: 1249
GlyphClass: 2
Flags: HW
AnchorPoint: "Anchor-10" 615 1061 basechar 0
AnchorPoint: "Anchor-7" 227 -758 basechar 0
LayerCount: 2
Fore
SplineSet
791 48 m 0
 864 48 911 74 912 138 c 0
 912 169.139731543 911.870758416 209.885223739 841 258.33203125 c 6
 644 393 l 1
 642 354 640 291 640 255 c 0
 640 119 660 49 791 48 c 0
1243 294 m 2
 1254 294 l 2
 1271 294 1279 262 1279 197 c 2
 1279 124 l 2
 1279 41 1271 0 1254 0 c 2
 1233 0 l 2
 1171 0 1115 21 1065 65 c 1
 1018 -108 920 -203 784 -203 c 0
 577 -202 473 -68 473 201 c 0
 473 237 474 272 475 308 c 1
 381 276 311 224 266 153 c 1
 280 -308 l 2
 284 -446 247 -551 166 -629 c 0
 134 -659 112 -656 110 -596 c 0
 104 -424 93 -188 93 -15 c 0
 93 347 215 472 514 549 c 1
 535 651 557 735 605 700 c 2
 1073 348 l 2
 1121 312 1177 294 1243 294 c 2
EndSplineSet
EndChar

StartChar: uniFEE3
Encoding: 65251 65251 238
GlifName: uniF_E_E_3
Width: 1028
GlyphClass: 2
Flags: HW
AnchorPoint: "Anchor-10" 582 1082 basechar 0
AnchorPoint: "Anchor-7" 532 -263 basechar 0
LayerCount: 2
Fore
SplineSet
-5 0 m 2
 -42 0 -60 48 -60 144 c 2
 -60 177 l 2
 -60 255 -42 294 -5 294 c 2
 21 294 l 2
 101 294 201 335 266 428 c 0
 388 603 480 734 619 734 c 0
 807 734 934 504 934 292 c 0
 934 138 809 -32 697 -32 c 0
 597 -32 462 34 312 167 c 1
 221 56 110 0 17 0 c 2
 -5 0 l 2
698 235 m 0
 743 235 771 253 771 296 c 0
 771 385 704 509 625 509 c 0
 548 509 492 429 456 376 c 1
 560 282 641 235 698 235 c 0
EndSplineSet
EndChar

StartChar: uniFEE4
Encoding: 65252 65252 239
GlifName: uniF_E_E_4
Width: 1135
GlyphClass: 2
Flags: HW
AnchorPoint: "Anchor-10" 595 1020 basechar 0
AnchorPoint: "Anchor-7" 519 -275 basechar 0
LayerCount: 2
Fore
SplineSet
449 316 m 1
 536 243 632 187 691 187 c 0
 735 187 775 218 775 256 c 0
 775 344 682 457 611 457 c 0
 551 457 478 353 449 316 c 1
-5 294 m 2
 21 294 l 2
 127 294 213 334 280 413 c 0
 383 536 484 663 616 663 c 0
 775 663 853 531 939 373 c 0
 968 320 1022 294 1122 294 c 2
 1140 294 l 2
 1157 294 1165 255 1165 177 c 2
 1165 124 l 2
 1165 41 1157 0 1140 0 c 2
 1116 0 l 2
 1037 0 970 37 895 110 c 1
 861 37 774 -71 674 -71 c 0
 568 -71 440 -5 291 127 c 1
 232 42 143 0 23 0 c 2
 -5 0 l 2
 -42 0 -60 48 -60 144 c 2
 -60 177 l 2
 -60 255 -42 294 -5 294 c 2
EndSplineSet
EndChar

StartChar: uniFEEA
Encoding: 65258 65258 245
GlifName: uniF_E_E_A_
Width: 1016
GlyphClass: 2
Flags: HW
AnchorPoint: "Anchor-10" 570 1240 basechar 0
AnchorPoint: "Anchor-7" 458 -210 basechar 0
LayerCount: 2
Fore
SplineSet
523 405 m 0
 555 405 586 406 617 407 c 1
 560 659 l 1
 402 611 238 550 238 479 c 0
 238 421 388 405 523 405 c 0
1021 0 m 2
 1001 0 l 2
 828 0 719 93 652 267 c 1
 492 125 l 17
 307 145 114 161 96 250 c 0
 87.0728020398 294.140034359 84.9793372484 344.115961154 84.9793372484 399.243487345 c 0
 84.9793372484 652.352770673 205.17479155 712.869388477 518 851 c 1
 499 937 l 1
 608 1054 l 2
 652.30253384 1101.99441166 654.370131497 1113.14934252 671 1030 c 6
 788 452 l 2
 811 337 891 294 1001 294 c 2
 1021 294 l 2
 1038 294 1046 262 1046 197 c 2
 1046 124 l 2
 1046 41 1038 0 1021 0 c 2
EndSplineSet
EndChar

StartChar: uniFEEB
Encoding: 65259 65259 246
GlifName: uniF_E_E_B_
Width: 1246
GlyphClass: 2
Flags: HW
AnchorPoint: "Anchor-10" 549 1361 basechar 0
AnchorPoint: "Anchor-7" 526 -226 basechar 0
LayerCount: 2
Fore
SplineSet
642 630 m 4
 642 703 589 751 512 751 c 4
 458 751 334 673 334 578 c 4
 334 517 402 471 536 439 c 5
 590 478 642 544 642 630 c 4
783 639 m 5
 782 538 750 455 689 388 c 5
 817 342 901 316 938 313 c 5
 968 356 982 397 982 435 c 4
 982 518 908 583 783 639 c 5
928 78 m 4
 825 78 691 104 528 155 c 5
 406 52 233 0 48 0 c 6
 -5 0 l 6
 -42 0 -60 48 -60 144 c 6
 -60 177 l 6
 -60 255 -42 294 -5 294 c 5
 86 294 191 294 280 294 c 5
 194 330 151 395 151 490 c 4
 151 626 243 775 371 871 c 5
 279 914 l 5
 350 1125 l 5
 693 954 l 6
 965.140961218 818.326226331 1158 712 1158 466 c 4
 1158 304 1028 78 928 78 c 4
EndSplineSet
EndChar

StartChar: uniFEEC
Encoding: 65260 65260 247
GlifName: uniF_E_E_C_
Width: 918
GlyphClass: 2
Flags: HW
AnchorPoint: "Anchor-7" 528 -741 basechar 0
AnchorPoint: "Anchor-10" 466 1154 basechar 0
LayerCount: 2
Fore
SplineSet
339 297 m 1
 536 305 606 348 606 426 c 0
 606 461 552 545 448 642 c 1
 393 554 351 389 339 297 c 1
746 495 m 0
 746 231 570 29 342 -1 c 1
 405 -110 480 -190 547 -234 c 1
 590 40 730 294 902 294 c 2
 923 294 l 2
 940 294 948 262 948 197 c 2
 948 124 l 2
 948 41 940 0 923 0 c 2
 904 0 l 2
 769.145101545 0 718.086402499 -72.5848470298 718.086402499 -174.147674401 c 0
 718.086402499 -234.288827707 735.990139277 -304.591112066 765 -376 c 1
 599 -554 l 1
 369 -406 237 -216 192 0 c 1
 -5 0 l 2
 -42 0 -60 48 -60 144 c 2
 -60 177 l 2
 -60 255 -42 294 -5 294 c 2
 184 294 l 1
 207 481 341 901 483 901 c 0
 549 901 746 687 746 495 c 0
EndSplineSet
EndChar

StartChar: uniFEEE
Encoding: 65262 65262 249
GlifName: uniF_E_E_E_
Width: 816
GlyphClass: 2
Flags: HW
AnchorPoint: "Anchor-10" 397 1027 basechar 0
AnchorPoint: "Anchor-7" 345 -658 basechar 0
LayerCount: 2
Fore
SplineSet
417 287 m 0
 465 287 509 287 555 287 c 1
 522 421 460 488 370 488 c 0
 301 488 248 440 248 361 c 0
 248 292 302 287 417 287 c 0
69 -352 m 0
 304 -262 479 -148 529 0 c 1
 258 0 86 45 86 266 c 0
 86 478 201 734 402 734 c 0
 607 734 703 512 719 294 c 1
 821 294 l 2
 838 294 846 262 846 197 c 2
 846 124 l 2
 846 41 838 0 821 0 c 2
 703 0 l 17
 628 -414 323 -542 233 -542 c 0
 210 -542 178 -535 143 -513 c 2
 48 -453 l 2
 -34 -400 -26 -389 69 -352 c 0
EndSplineSet
EndChar

StartChar: uniFEFB
Encoding: 65275 65275 262
GlifName: uniF_E_F_B_
Width: 1197
GlyphClass: 3
Flags: HW
AnchorPoint: "Anchor-9" 902 1522 baselig 0
AnchorPoint: "Anchor-9" 204 1418 baselig 1
AnchorPoint: "Anchor-6" 899 -223 baselig 0
AnchorPoint: "Anchor-6" 281 -244 baselig 1
LayerCount: 2
Fore
SplineSet
532 267 m 1
 437 585 285 885 76 1168 c 1
 241 1302 l 2
 274 1329 269 1327 291 1294 c 0
 449 1045 591 725 717 332 c 1
 822 394 875 474 875 574 c 0
 875 707 855 938 816 1287 c 1
 1003 1419 l 2
 1053 1454 1062 1465 1063 1400 c 0
 1065 1140 1069 889 1069 629 c 0
 1069 145 757 -28 237 -28 c 1
 85 171 l 2
 58 206 42 237 100 237 c 0
 300 237 444 247 532 267 c 1
EndSplineSet
LCarets2: 1 0
Ligature2: "'rlig' Required Ligatures in Arabic lookup 16 subtable" uniFEDF uniFE8E
EndChar

StartChar: uniFEFC
Encoding: 65276 65276 263
GlifName: uniF_E_F_C_
Width: 1281
GlyphClass: 3
Flags: HW
AnchorPoint: "Anchor-6" 281 -244 baselig 1
AnchorPoint: "Anchor-6" 899 -223 baselig 0
AnchorPoint: "Anchor-9" 204 1438 baselig 1
AnchorPoint: "Anchor-9" 902 1522 baselig 0
LayerCount: 2
Fore
SplineSet
717 332 m 1
 826 398 875 474 875 577 c 0
 875 682 855 912 816 1287 c 1
 1004 1419 l 2
 1054 1454 1061 1464 1062 1399 c 2
 1069 639 l 2
 1071 418 1095 294 1255 294 c 9
 1286 294 l 2
 1303 294 1311 262 1311 197 c 2
 1311 124 l 2
 1311 41 1303 0 1286 0 c 2
 1234 0 l 2
 1084 0 979 61 917 183 c 1
 777 42 551 -28 237 -28 c 1
 85 171 l 2
 58 206 42 237 100 237 c 0
 300 237 444 247 532 267 c 1
 437 585 285 885 76 1168 c 1
 241 1302 l 2
 274 1329 269 1328 291 1294 c 0
 456 1025 598 704 717 332 c 1
EndSplineSet
LCarets2: 1 0
Ligature2: "'rlig' Required Ligatures in Arabic lookup 16 subtable" uniFEE0 uniFE8E
EndChar

StartChar: arabic_dot
Encoding: 65536 -1 264
GlifName: arabic_dot
Width: 233
GlyphClass: 2
Flags: HW
LayerCount: 2
Fore
SplineSet
116.014648438 281.21484375 m 5
 271.21484375 126.014648438 l 5
 116.014648438 -28.21484375 l 5
 -38.21484375 126.014648438 l 5
 116.014648438 281.21484375 l 5
EndSplineSet
EndChar

StartChar: arabic_2dots
Encoding: 65537 -1 265
GlifName: arabic_2dots
Width: 602
GlyphClass: 2
Flags: HW
LayerCount: 2
Fore
SplineSet
463.014648438 272.455078125 m 5
 610.455078125 125.985351562 l 5
 463.014648438 -21.455078125 l 5
 316.544921875 125.985351562 l 5
 463.014648438 272.455078125 l 5
148.985351562 272.455078125 m 5
 295.455078125 125.985351562 l 5
 148.985351562 -21.455078125 l 5
 1.544921875 125.985351562 l 5
 148.985351562 272.455078125 l 5
EndSplineSet
EndChar

StartChar: arabic_3dots
Encoding: 65538 -1 266
GlifName: arabic_3dots
Width: 581
GlyphClass: 2
Flags: HW
LayerCount: 2
Fore
SplineSet
295.014648438 476.6796875 m 5
 434.6953125 337 l 5
 295.014648438 197.3203125 l 5
 156.3046875 337 l 5
 295.014648438 476.6796875 l 5
456 240.6796875 m 5
 595.6796875 101 l 5
 456 -38.6796875 l 5
 316.3203125 101 l 5
 456 240.6796875 l 5
135 240.6796875 m 5
 274.6796875 101 l 5
 135 -38.6796875 l 5
 -4.6796875 101 l 5
 135 240.6796875 l 5
EndSplineSet
EndChar

StartChar: arabic_3dots_a
Encoding: 65539 -1 267
GlifName: arabic_3dots_a
Width: 628
GlyphClass: 2
Flags: HW
LayerCount: 2
Fore
SplineSet
317.014648438 -237.6796875 m 5
 178.3046875 -98 l 5
 317.014648438 41.6796875 l 5
 456.6953125 -98 l 5
 317.014648438 -237.6796875 l 5
478 -1.6796875 m 5
 338.3203125 138 l 5
 478 277.6796875 l 5
 617.6796875 138 l 5
 478 -1.6796875 l 5
157 -1.6796875 m 5
 17.3203125 138 l 5
 157 277.6796875 l 5
 296.6796875 138 l 5
 157 -1.6796875 l 5
EndSplineSet
EndChar

StartChar: uni066E.fina
Encoding: 65540 -1 268
GlifName: uni066E_.fina
Width: 1942
GlyphClass: 2
Flags: HW
AnchorPoint: "Anchor-10" 1045 1800 basechar 0
AnchorPoint: "Anchor-7" 975 -368 basechar 0
LayerCount: 2
Fore
SplineSet
850 0 m 4
 429 0 96 85 96 451 c 4
 96 576 125 694 182 805 c 5
 293 770 l 5
 272 696 261 630 261 572 c 4
 261 333 512 291 877 291 c 4
 1231 291 1541 351 1604 607 c 1
 1721 592 l 1
 1716 550 1713 523 1713 510 c 0
 1713 366 1786 294 1932 294 c 2
 1947 294 l 2
 1964 294 1972 262 1972 197 c 2
 1972 124 l 2
 1972 41 1964 0 1947 0 c 2
 1929 0 l 2
 1750 0 1633 77 1578 231 c 1
 1435 77 1192 0 850 0 c 4
EndSplineSet
EndChar

StartChar: uni06A1.fina
Encoding: 65543 -1 269
GlifName: uni06A_1.fina
Width: 1893
GlyphClass: 2
Flags: HW
AnchorPoint: "Anchor-10" 751 1980 basechar 0
AnchorPoint: "Anchor-7" 888 -453 basechar 0
LayerCount: 2
Fore
SplineSet
1470 658 m 0
 1414 658 1321 570 1320 514 c 0
 1321 442 1443 370 1471 370 c 0
 1519 370 1621 471 1621 520 c 0
 1621 577 1542 658 1470 658 c 0
1248 302 m 5
 1189 371 1158.47253543 453.001449068 1159 549 c 0
 1160 731 1323 926 1482 926 c 0
 1626 926 1782 733 1782 565 c 0
 1782 460 1747 372 1677 297 c 1
 1715 296 1779 294 1867 294 c 2
 1900 294 l 2
 1917 294 1925 262 1925 197 c 2
 1925 124 l 2
 1925 41 1917 0 1900 0 c 2
 1858 0 l 2
 1709 0 1578 27 1464 140 c 1
 1326 34 1112 0 820 0 c 0
 421 0 96 96 96 451 c 0
 96 576 125 694 182 805 c 1
 293 770 l 1
 272 696 261 630 261 572 c 0
 261 342 496 291 819 291 c 0
 1026 291 1170 294 1248 302 c 5
EndSplineSet
EndChar

StartChar: uni06A1.init
Encoding: 65544 -1 270
GlifName: uni06A_1.init
Width: 852
GlyphClass: 2
Flags: HW
AnchorPoint: "Anchor-10" 487 2022 basechar 0
AnchorPoint: "Anchor-7" 465 -364 basechar 0
LayerCount: 2
Fore
SplineSet
-5 294 m 6
 229 294 l 6
 497 294 602 335 611 437 c 5
 546 425 482 418 413 418 c 4
 232 418 141 500 141 664 c 4
 141 878 250 1109 445 1109 c 4
 684 1109 771 810 771 517 c 4
 771 139 602 0 223 0 c 6
 -5 0 l 6
 -42 0 -60 48 -60 144 c 6
 -60 177 l 6
 -60 255 -42 294 -5 294 c 6
436 661 m 4
 509 661 564 668 603 681 c 5
 574 805 520 866 425 866 c 4
 361 866 297 813 297 735 c 4
 297 673 352 661 436 661 c 4
EndSplineSet
EndChar

StartChar: uni06A1.medi
Encoding: 65545 -1 271
GlifName: uni06A_1.medi
Width: 907
GlyphClass: 2
Flags: HW
AnchorPoint: "Anchor-10" 758 1702 basechar 0
AnchorPoint: "Anchor-7" 698 -357 basechar 0
LayerCount: 2
Fore
SplineSet
-5 294 m 6
 17 294 l 6
 131 294 213 294 260 302 c 5
 201 371 171 453 171 549 c 4
 172 731 335 926 494 926 c 4
 638 926 794 733 794 565 c 4
 794 460 759 372 689 297 c 5
 727 296 791 294 879 294 c 6
 912 294 l 6
 929 294 937 262 937 197 c 6
 937 124 l 6
 937 41 929 0 912 0 c 6
 870 0 l 6
 721 0 590 27 476 140 c 5
 354 27 201 0 18 0 c 6
 -5 0 l 6
 -42 0 -60 48 -60 144 c 6
 -60 177 l 6
 -60 255 -42 294 -5 294 c 6
482 658 m 4
 426 658 333 570 332 514 c 4
 333 442 455 370 483 370 c 4
 531 370 633 471 633 520 c 4
 633 577 554 658 482 658 c 4
EndSplineSet
EndChar

StartChar: uni066F.fina
Encoding: 65546 -1 272
GlifName: uni066F_.fina
Width: 1409
GlyphClass: 2
Flags: HW
AnchorPoint: "Anchor-10" 455 763 basechar 0
AnchorPoint: "Anchor-7" 376 -875 basechar 0
LayerCount: 2
Fore
SplineSet
966 289 m 0
 1023 289 1080 289 1137 289 c 1
 1104 423 1042 489 952 489 c 0
 883 489 832 441 830 362 c 0
 830 314 875 289 966 289 c 0
668 267 m 0
 668 479 780 735 984 735 c 0
 1189 735 1285 514 1301 295 c 1
 1414 294 l 2
 1431 294 1439 262 1439 197 c 2
 1439 124 l 2
 1439 41 1431 0 1414 0 c 2
 1293 0 l 1
 1281 -345 1054 -535 666 -535 c 0
 305 -535 90 -358 90 -23 c 0
 90 123 124 271 190 418 c 1
 308 379 l 1
 273 265 256 167 256 85 c 0
 256 -163 408 -255 667 -255 c 0
 916 -255 1139 -186 1144 0 c 1
 1023 0 l 2
 787 0 668 89 668 267 c 0
EndSplineSet
EndChar

StartChar: arabic_gaf_bar
Encoding: 65550 -1 273
GlifName: arabic_gaf_bar
Width: 788
GlyphClass: 2
Flags: HW
LayerCount: 2
Fore
SplineSet
721 2002 m 6
 705 1920 l 1
 29 1674 l 1
 50 1783 l 5
 698 2024 l 6
 718 2031 725 2024 721 2002 c 6
EndSplineSet
EndChar

StartChar: guillemotleft
Encoding: 171 171 283
GlifName: guillemotleft
Width: 922
Flags: HW
LayerCount: 2
Fore
SplineSet
455.696289062 455 m 0
 455.696289062 549.1484375 514.501953125 730.919921875 694.68359375 931.30859375 c 1
 793 831.70703125 l 1
 654.901367188 653.58203125 634.696289062 521.028320312 634.696289062 456 c 0
 634.696289062 383.854492188 652.4296875 260.067382812 792.986328125 78.2802734375 c 1
 694.685546875 -21.3076171875 l 1
 514.540039062 178.98828125 455.696289062 360.90234375 455.696289062 455 c 0
95.6962890625 455 m 0
 95.6962890625 549.1484375 154.501953125 730.919921875 334.68359375 931.30859375 c 1
 433 831.70703125 l 1
 294.901367188 653.58203125 274.696289062 521.028320312 274.696289062 456 c 0
 274.696289062 383.854492188 292.4296875 260.067382812 432.986328125 78.2802734375 c 1
 334.685546875 -21.3076171875 l 1
 154.540039062 178.98828125 95.6962890625 360.90234375 95.6962890625 455 c 0
EndSplineSet
EndChar

StartChar: guillemotright
Encoding: 187 187 284
GlifName: guillemotright
Width: 922
Flags: HW
LayerCount: 2
Fore
SplineSet
467 455 m 4
 467 360.902147568 408.156380485 178.988649303 228.010796285 -21.3071444267 c 5
 129.709960938 78.2802734375 l 5
 270.266601562 260.067382812 288 383.85441549 288 456 c 4
 288 521.028519243 267.794921875 653.58203125 129.696289062 831.70703125 c 5
 228.012251068 931.308482158 l 5
 408.194271075 730.919670159 467 549.14796954 467 455 c 4
827 455 m 4
 827 360.902147568 768.156380485 178.988649303 588.010796285 -21.3071444267 c 5
 489.709960938 78.2802734375 l 5
 630.266601562 260.067382812 648 383.85441549 648 456 c 4
 648 521.028519243 627.794921875 653.58203125 489.696289062 831.70703125 c 5
 588.012251068 931.308482158 l 5
 768.194271075 730.919670159 827 549.14796954 827 455 c 4
EndSplineSet
EndChar

StartChar: NameMe.304
Encoding: 65562 -1 293
GlifName: N_ameM_e.302
Width: 570
Flags: HW
LayerCount: 2
Fore
SplineSet
-5 294 m 2
 26 294 l 2
 181 294 193 344 193 554 c 0
 193 682 184 824 169 1063 c 1
 336 1165 l 2
 387 1195 391 1190 391 1138 c 2
 391 612 l 2
 391 366 369 294 538 294 c 2
 575 294 l 2
 592 294 600 262 600 197 c 2
 600 124 l 2
 600 41 592 0 575 0 c 2
 547 0 l 2
 407 0 339 53 283 159 c 5
 220 53 152 0 20 0 c 2
 -5 0 l 2
 -42 0 -60 48 -60 144 c 2
 -60 177 l 2
 -60 255 -42 294 -5 294 c 2
EndSplineSet
EndChar

StartChar: NameMe.303
Encoding: 65563 -1 294
GlifName: N_ameM_e.303
Width: 526
Flags: HW
LayerCount: 2
Fore
SplineSet
-5 294 m 6
 27 294 l 6
 202 294 209 303 209 450 c 4
 209 669 196 787 152 1209 c 5
 335 1327 l 6
 389.901367188 1362.40136719 394 1358 395 1309 c 4
 400.469726562 1040.96484375 408 792 408 523 c 4
 408 168 364 -4.07807384116e-14 31 0 c 6
 -5 0 l 6
 -42 0 -60 48 -60 144 c 6
 -60 177 l 6
 -60 255 -42 294 -5 294 c 6
EndSplineSet
EndChar

StartChar: uniFDFC
Encoding: 65020 65020 296
GlifName: uniF_D_F_C_
Width: 2485
Flags: HW
LayerCount: 2
Fore
SplineSet
2220.51953125 717.639648438 m 5
 2220.51953125 717.639648438 2386.89941406 565.360351562 2386.89941406 255.16015625 c 4
 2386.89941406 -138.700195312 2054.13964844 -381.219726562 1922.54003906 -381.219726562 c 4
 1889.63964844 -381.219726562 1850.16015625 -363.360351562 1828.54003906 -349.259765625 c 6
 1751.45996094 -300.379882812 l 6
 1672.5 -250.559570312 1676.25976562 -236.459960938 1768.37988281 -202.620117188 c 4
 2019.359375 -110.5 2213 30.5 2213 195 c 4
 2213 249.51953125 2147.19921875 365.139648438 2052.25976562 489.219726562 c 5
 2220.51953125 717.639648438 l 5
1764.99316406 211.865234375 m 5
 1910.85839844 66 l 5
 1764.99316406 -79.865234375 l 5
 1619.12890625 66 l 5
 1764.99316406 211.865234375 l 5
1443.83691406 211.865234375 m 5
 1589.70117188 66 l 5
 1443.83691406 -79.865234375 l 5
 1297.97167969 66 l 5
 1443.83691406 211.865234375 l 5
1224 858 m 4
 1224 1048 1213 1190 1192 1284 c 5
 1378 1411 l 6
 1415 1436 1423 1438 1422 1387 c 4
 1419 1255 1419 1003 1419 870 c 4
 1419 680 1431 626 1554 626 c 6
 1649 626 l 6
 1723 626 1772 649 1772 711 c 4
 1772 757 1738 823 1712 871 c 5
 1823 1011 l 6
 1850 1044 1870 1054 1882 1027 c 4
 1920 958 1938 857 1938 726 c 4
 1938 501 1837 343 1612 343 c 6
 1521 344 l 6
 1247 344 1226 543 1224 858 c 4
1039 342 m 0
 1039 -39 872 -235 553 -235 c 0
 260 -235 85 -69 85 219 c 0
 85 358 114 490 171 616 c 1
 288 575 l 1
 258 480 243 398 243 329 c 0
 243 147 361 47 533 47 c 0
 744 47 852 104 852 295 c 0
 852 471 827 767 781 1282 c 1
 962 1407 l 2
 999 1434 1005 1433 1008 1370 c 0
 1024 1037 1039 694 1039 342 c 0
EndSplineSet
EndChar

StartChar: NameMe.306
Encoding: 65564 -1 297
GlifName: N_ameM_e.65564
Width: 511
Flags: HW
LayerCount: 2
Fore
SplineSet
320 638 m 0
 323 401 304 294 489 294 c 2
 516 294 l 2
 533 294 541 262 541 197 c 2
 541 124 l 2
 541 41 533 0 516 0 c 2
 484 0 l 2
 114 0 128.87104282 283.010010185 124 680 c 4
 122 843 103 952 70 1155 c 5
 248 1267 l 6
 302.009765625 1300.984375 303 1298 306 1232 c 4
 313.181640625 1074.0078125 317 862 320 638 c 0
EndSplineSet
EndChar

StartChar: NameMe.65567
Encoding: 65565 -1 298
GlifName: N_ameM_e.65565
Width: 678
Flags: HW
LayerCount: 2
Fore
SplineSet
107 -35 m 5
 147 -55 194 -64 248 -64 c 4
 424 -64 484 16 484 37 c 4
 484 56 450 72 351 101 c 4
 309 113 289 139 289 180 c 4
 289 299 410 445 549 445 c 4
 574 445 599 441 626 433 c 5
 623 407 616 368 604 317 c 5
 589 319 575 319 559 319 c 4
 481 319 411 271 385 213 c 5
 514 170 l 6
 553 157 574 126 574 77 c 4
 574 -85 418 -175 248 -175 c 4
 180 -175 120 -164 68 -143 c 5
 107 -35 l 5
EndSplineSet
EndChar

StartChar: uni060D
Encoding: 1549 1549 299
Width: 828
VWidth: 4036
Flags: HW
LayerCount: 2
Fore
SplineSet
611 1457 m 5
 754 1414 l 5
 198 -211 l 5
 55 -168 l 5
 611 1457 l 5
EndSplineSet
EndChar

StartChar: NameMe.65541
Encoding: 65541 -1 300
Width: 576
Flags: HW
AnchorPoint: "Anchor-10" 323 1271 basechar 0
AnchorPoint: "Anchor-7" 351 -250 basechar 0
LayerCount: 2
Fore
SplineSet
-5 0 m 2
 -42 0 -60 48 -60 144 c 2
 -60 177 l 2
 -60 255 -42 294 -5 294 c 2
 99 294 l 2
 220 294 300 302 300 373 c 0
 300 428 272 520 217 649 c 1
 353 825 l 2
 383 864 384 867 408 825 c 0
 466 725 496 606 496 471 c 0
 496 192 337 0 85 0 c 2
 -5 0 l 2
EndSplineSet
EndChar

StartChar: NameMe.65542
Encoding: 65542 -1 301
Width: 688
Flags: HW
AnchorPoint: "Anchor-10" 387 1169 basechar 0
AnchorPoint: "Anchor-7" 361 -209 basechar 0
LayerCount: 2
Fore
SplineSet
-5 0 m 2
 -42 0 -60 48 -60 144 c 2
 -60 177 l 2
 -60 255 -42 294 -5 294 c 2
 94 294 l 2
 235 294 310 343 318 442 c 2
 333 614 l 1
 476 614 l 1
 492 445 l 2
 502 344 549 294 673 294 c 2
 693 294 l 2
 710 294 718 262 718 197 c 2
 718 124 l 2
 718 41 710 0 693 0 c 2
 672 0 l 2
 539 0 470 53 403 159 c 1
 334 53 226 0 99 0 c 2
 -5 0 l 2
EndSplineSet
EndChar

StartChar: uniFBFD.compact
Encoding: 65575 -1 321
Width: 1361
Flags: HW
AnchorPoint: "Anchor-7" 718.902 -698.086 basechar 0
AnchorPoint: "Anchor-10" 672 693 basechar 0
LayerCount: 2
Fore
SplineSet
677 -255 m 0
 929 -255 1166 -167 1166 -90 c 0
 1166 -45 1033 -15 854 3 c 0
 823 6 817 27 826 54 c 2
 901 294 l 9
 1366 294 l 2
 1383 294 1391 262 1391 197 c 2
 1391 124 l 2
 1391 41 1383 0 1366 0 c 2
 1291 0 l 1
 1316 -28 1328 -64 1328 -109 c 0
 1328 -388 982 -536 672 -537 c 16
 320 -536 100 -353 100 -23 c 0
 100 123 134 271 200 418 c 1
 318 379 l 1
 283 265 266 167 266 85 c 0
 266 -160 426 -255 677 -255 c 0
EndSplineSet
EndChar

StartChar: uniFD3E
Encoding: 64830 64830 326
Width: 1466
Flags: HW
LayerCount: 2
Fore
SplineSet
720 667 m 4
 720 631 748 603 784 603 c 4
 820 603 848 631 848 667 c 4
 848 703 820 731 784 731 c 4
 748 731 720 703 720 667 c 4
734 197 m 0
 777 9 870 -131 992 -260 c 1
 929 -116 872 44 846 195 c 0
 842 218 849 237 865 253 c 2
 907 294 l 2
 920 307 936 314 954 314 c 2
 1134 314 l 1
 1134 1025 l 1
 954 1025 l 2
 936 1025 920 1032 907 1045 c 2
 862 1089 l 2
 846 1105 839 1125 843 1147 c 0
 873 1333 934 1503 1006 1662 c 1
 870 1524 772 1370 723 1134 c 0
 720 1120 715 1109 705 1099 c 2
 651 1045 l 2
 638 1032 623 1025 604 1025 c 2
 423 1025 l 1
 423 845 l 2
 423 826 416 810 403 797 c 2
 276 670 l 1
 403 542 l 2
 416 529 423 513 423 495 c 2
 423 314 l 1
 604 314 l 2
 623 314 638 307 651 294 c 2
 716 229 l 2
 725 220 731 209 734 197 c 0
977 669 m 4
 977 561 889 473 781 473 c 4
 673 473 585 561 585 669 c 4
 585 777 673 865 781 865 c 4
 889 865 977 777 977 669 c 4
1277 1804 m 1
 1114 1656 1020 1411 977 1163 c 1
 980 1159 l 1
 1201 1159 l 2
 1240 1159 1268 1127 1268 1092 c 2
 1268 247 l 2
 1268 213 1237 181 1201 181 c 2
 984 181 l 1
 981 176 l 1
 1035 -102 1135 -297 1271 -407 c 0
 1325 -450 1281 -489 1215 -524 c 1
 895 -430 693 -205 608 149 c 1
 576 181 l 1
 356 181 l 2
 323 180 290 211 290 247 c 2
 290 467 l 1
 134 623 l 2
 118 639 111 654 111 670 c 0
 111 686 118 701 134 717 c 2
 290 872 l 1
 290 1092 l 2
 289 1126 321 1159 356 1159 c 2
 576 1159 l 1
 596 1179 l 1
 676 1574 880 1819 1210 1915 c 0
 1274 1933 1288 1865 1277 1804 c 1
EndSplineSet
EndChar

StartChar: uniFD3F
Encoding: 64831 64831 327
Width: 1466
Flags: HW
LayerCount: 2
Fore
SplineSet
189 1804 m 1
 178 1865 191 1933 255 1915 c 0
 585 1819 790 1574 870 1179 c 1
 890 1159 l 1
 1110 1159 l 2
 1145 1159 1177 1126 1176 1092 c 2
 1176 872 l 1
 1332 717 l 2
 1348 701 1355 686 1355 670 c 0
 1355 654 1348 639 1332 623 c 2
 1176 467 l 1
 1176 247 l 2
 1176 211 1143 180 1110 181 c 2
 890 181 l 1
 858 149 l 1
 773 -205 571 -430 251 -524 c 1
 186 -490 141 -450 194 -407 c 0
 330 -297 429 -102 483 177 c 1
 481 181 l 1
 265 181 l 2
 229 181 198 213 198 247 c 2
 198 1092 l 2
 198 1127 226 1159 265 1159 c 2
 486 1159 l 1
 488 1162 l 1
 445 1409 351 1657 189 1804 c 1
485 669 m 4
 485 777 573 865 681 865 c 4
 789 865 877 777 877 669 c 4
 877 561 789 473 681 473 c 4
 573 473 485 561 485 669 c 4
732 197 m 0
 735 209 741 220 750 229 c 2
 815 294 l 2
 828 307 843 314 862 314 c 2
 1043 314 l 1
 1043 495 l 2
 1043 513 1049 529 1062 542 c 2
 1190 670 l 1
 1062 797 l 2
 1049 810 1043 826 1043 845 c 2
 1043 1025 l 1
 862 1025 l 2
 843 1025 828 1032 815 1045 c 2
 761 1099 l 2
 751 1109 746 1120 743 1134 c 0
 694 1370 596 1524 460 1662 c 1
 532 1503 593 1333 623 1147 c 0
 627 1125 620 1105 604 1089 c 2
 559 1045 l 2
 546 1032 530 1025 512 1025 c 2
 331 1025 l 1
 331 314 l 1
 512 314 l 2
 530 314 546 307 559 294 c 2
 601 253 l 2
 617 237 623 218 619 195 c 0
 593 44 537 -116 474 -260 c 1
 596 -131 689 9 732 197 c 0
748 667 m 4
 748 703 720 731 684 731 c 4
 648 731 620 703 620 667 c 4
 620 631 648 603 684 603 c 4
 720 603 748 631 748 667 c 4
EndSplineSet
EndChar
